<svg width="140" height="140" viewBox="0 0 140 140" fill="none" xmlns="http://www.w3.org/2000/svg">
<g id="tile" fill="#433023">
<path id="qr-icon" d="M87.2092 24.8707C86.5825 24.8707 86.0576 24.6592 85.6345 24.2362C85.2115 23.8132 85 23.2883 85 22.6616V17.2562C85 16.6295 85.2115 16.0967 85.6345 15.658C86.0576 15.2193 86.5825 15 87.2092 15H92.6146C93.2413 15 93.7662 15.2193 94.1892 15.658C94.6122 16.0967 94.8237 16.6295 94.8237 17.2562C94.8237 17.8829 94.6122 18.4078 94.1892 18.8308C93.7662 19.2538 93.2413 19.4653 92.6146 19.4653H89.4183V22.6616C89.4183 23.2883 89.2068 23.8132 88.7838 24.2362C88.3608 24.6592 87.8359 24.8707 87.2092 24.8707ZM87.2092 55C86.5825 55 86.0576 54.7885 85.6345 54.3655C85.2115 53.9424 85 53.4175 85 52.7908V47.3854C85 46.7587 85.2115 46.2338 85.6345 45.8108C86.0576 45.3878 86.5825 45.1763 87.2092 45.1763C87.8359 45.1763 88.3608 45.3878 88.7838 45.8108C89.2068 46.2338 89.4183 46.7587 89.4183 47.3854V50.5817H92.6146C93.2413 50.5817 93.7662 50.7932 94.1892 51.2162C94.6122 51.6392 94.8237 52.1641 94.8237 52.7908C94.8237 53.4175 94.6122 53.9424 94.1892 54.3655C93.7662 54.7885 93.2413 55 92.6146 55H87.2092ZM117.338 55C116.712 55 116.187 54.7885 115.764 54.3655C115.341 53.9424 115.129 53.4175 115.129 52.7908C115.129 52.1641 115.341 51.6392 115.764 51.2162C116.187 50.7932 116.712 50.5817 117.338 50.5817H120.535V47.3854C120.535 46.7587 120.746 46.2338 121.169 45.8108C121.592 45.3878 122.117 45.1763 122.744 45.1763C123.371 45.1763 123.903 45.3878 124.342 45.8108C124.781 46.2338 125 46.7587 125 47.3854V52.7908C125 53.4175 124.781 53.9424 124.342 54.3655C123.903 54.7885 123.371 55 122.744 55H117.338ZM122.744 24.8707C122.117 24.8707 121.592 24.6592 121.169 24.2362C120.746 23.8132 120.535 23.2883 120.535 22.6616V19.4653H117.338C116.712 19.4653 116.187 19.2538 115.764 18.8308C115.341 18.4078 115.129 17.8829 115.129 17.2562C115.129 16.6295 115.341 16.0967 115.764 15.658C116.187 15.2193 116.712 15 117.338 15H122.744C123.371 15 123.903 15.2193 124.342 15.658C124.781 16.0967 125 16.6295 125 17.2562V22.6616C125 23.2883 124.781 23.8132 124.342 24.2362C123.903 24.6592 123.371 24.8707 122.744 24.8707V24.8707ZM115.693 45.7873H118.655V48.7485H115.693V45.7873ZM115.693 39.8649H118.655V42.8261H115.693V39.8649ZM112.732 42.8261H115.693V45.7873H112.732V42.8261ZM109.771 45.7873H112.732V48.7485H109.771V45.7873ZM106.81 42.8261H109.771V45.7873H106.81V42.8261ZM112.732 36.9036H115.693V39.8649H112.732V36.9036ZM109.771 39.8649H112.732V42.8261H109.771V39.8649ZM106.81 36.9036H109.771V39.8649H106.81V36.9036ZM118.655 21.2985V33.1434H106.81V21.2985H118.655ZM103.096 36.9036V48.7485H91.2515V36.9036H103.096ZM103.096 21.2985V33.1434H91.2515V21.2985H103.096ZM100.229 45.8813V39.7709H94.1187V45.8813H100.229ZM100.229 30.2761V24.1657H94.1187V30.2761H100.229ZM115.787 30.2761V24.1657H109.677V30.2761H115.787Z"/>
<path id="page-icon" d="M19.5131 51.6271C18.2779 51.6271 17.2169 51.1916 16.3302 50.3207C15.4434 49.4497 15 48.3967 15 47.1615V19.5131C15 18.3096 15.4434 17.2565 16.3302 16.3539C17.2169 15.4513 18.2779 15 19.5131 15H47.114C48.3175 15 49.3705 15.4513 50.2732 16.3539C51.1758 17.2565 51.6271 18.3096 51.6271 19.5131V21.9359H53.3373C53.8124 21.9359 54.2082 22.0942 54.5249 22.4109C54.8416 22.7276 55 23.1394 55 23.6461C55 24.1528 54.8416 24.5566 54.5249 24.8575C54.2082 25.1584 53.8124 25.3088 53.3373 25.3088H51.6271V31.6271H53.3373C53.8124 31.6271 54.2082 31.7854 54.5249 32.1021C54.8416 32.4188 55 32.8306 55 33.3373C55 33.844 54.8416 34.2557 54.5249 34.5724C54.2082 34.8892 53.8124 35.0475 53.3373 35.0475H51.6271V41.3658H53.3373C53.8124 41.3658 54.2082 41.5162 54.5249 41.8171C54.8416 42.118 55 42.5218 55 43.0285C55 43.5352 54.8416 43.947 54.5249 44.2637C54.2082 44.5804 53.8124 44.7387 53.3373 44.7387H51.6271V47.1615C51.6271 48.3967 51.1758 49.4497 50.2732 50.3207C49.3705 51.1916 48.3175 51.6271 47.114 51.6271H19.5131ZM19.5131 47.1615H47.114V19.5131H19.5131V47.1615ZM24.1211 44.7387H31.6746C32.308 44.7387 32.8385 44.5249 33.266 44.0974C33.6936 43.6698 33.9074 43.1394 33.9074 42.5059V37.4703C33.9074 36.8369 33.6936 36.3064 33.266 35.8789C32.8385 35.4513 32.308 35.2375 31.6746 35.2375H24.1211C23.4877 35.2375 22.9572 35.4513 22.5297 35.8789C22.1021 36.3064 21.8884 36.8369 21.8884 37.4703V42.5059C21.8884 43.1394 22.1021 43.6698 22.5297 44.0974C22.9572 44.5249 23.4877 44.7387 24.1211 44.7387ZM37.5653 28.7767H42.4584C43.0918 28.7767 43.6223 28.6105 44.0499 28.2779C44.4774 27.9454 44.6912 27.4624 44.6912 26.829V23.8836C44.6912 23.2502 44.4774 22.7672 44.0499 22.4347C43.6223 22.1021 43.0918 21.9359 42.4584 21.9359H37.5653C36.9319 21.9359 36.4014 22.1021 35.9739 22.4347C35.5463 22.7672 35.3325 23.2502 35.3325 23.8836V26.829C35.3325 27.4624 35.5463 27.9454 35.9739 28.2779C36.4014 28.6105 36.9319 28.7767 37.5653 28.7767ZM24.1211 33.8124H31.6746C32.308 33.8124 32.8385 33.5986 33.266 33.171C33.6936 32.7435 33.9074 32.213 33.9074 31.5796V24.1686C33.9074 23.5352 33.6936 23.0048 33.266 22.5772C32.8385 22.1496 32.308 21.9359 31.6746 21.9359H24.1211C23.4877 21.9359 22.9572 22.1496 22.5297 22.5772C22.1021 23.0048 21.8884 23.5352 21.8884 24.1686V31.5796C21.8884 32.213 22.1021 32.7435 22.5297 33.171C22.9572 33.5986 23.4877 33.8124 24.1211 33.8124V33.8124ZM37.5653 44.7387H42.4584C43.0918 44.7387 43.6223 44.5249 44.0499 44.0974C44.4774 43.6698 44.6912 43.1394 44.6912 42.5059V32.4347C44.6912 31.8013 44.4774 31.2708 44.0499 30.8432C43.6223 30.4157 43.0918 30.2019 42.4584 30.2019H37.5653C36.9319 30.2019 36.4014 30.4157 35.9739 30.8432C35.5463 31.2708 35.3325 31.8013 35.3325 32.4347V42.5059C35.3325 43.1394 35.5463 43.6698 35.9739 44.0974C36.4014 44.5249 36.9319 44.7387 37.5653 44.7387ZM19.5131 19.5131V47.1615V19.5131V19.5131Z"/>
<path id="language-icon" d="M104.976 125C102.188 125 99.5789 124.483 97.1504 123.449C94.7219 122.415 92.6067 120.989 90.8049 119.172C89.0031 117.354 87.5852 115.223 86.5511 112.779C85.517 110.335 85 107.718 85 104.929C85 102.141 85.517 99.5319 86.5511 97.1034C87.5852 94.6749 89.0031 92.5676 90.8049 90.7814C92.6067 88.9953 94.7219 87.5852 97.1504 86.5511C99.5789 85.517 102.188 85 104.976 85C107.765 85 110.374 85.517 112.803 86.5511C115.231 87.5852 117.346 88.9953 119.148 90.7814C120.95 92.5676 122.376 94.6749 123.425 97.1034C124.475 99.5319 125 102.141 125 104.929C125 107.718 124.475 110.335 123.425 112.779C122.376 115.223 120.95 117.354 119.148 119.172C117.346 120.989 115.231 122.415 112.803 123.449C110.374 124.483 107.765 125 104.976 125ZM104.929 120.723C105.932 119.626 106.794 118.365 107.515 116.939C108.235 115.513 108.846 113.797 109.348 111.792H100.652C101.06 113.672 101.624 115.349 102.344 116.821C103.065 118.294 103.927 119.595 104.929 120.723ZM101.075 120.159C100.26 119.031 99.5946 117.777 99.0776 116.398C98.5605 115.02 98.114 113.484 97.738 111.792H90.8754C92.0035 113.986 93.3353 115.701 94.8707 116.939C96.4062 118.177 98.4743 119.25 101.075 120.159V120.159ZM108.831 120.112C111.024 119.422 113.006 118.365 114.777 116.939C116.547 115.513 117.965 113.797 119.031 111.792H112.262C111.855 113.453 111.385 114.973 110.852 116.351C110.319 117.73 109.646 118.984 108.831 120.112V120.112ZM89.9824 109.113H97.2209C97.1269 108.267 97.0721 107.515 97.0564 106.857C97.0407 106.199 97.0329 105.556 97.0329 104.929C97.0329 104.146 97.0486 103.465 97.0799 102.885C97.1112 102.305 97.1739 101.639 97.2679 100.887H89.9824C89.763 101.639 89.6142 102.297 89.5358 102.861C89.4575 103.425 89.4183 104.115 89.4183 104.929C89.4183 105.713 89.4575 106.418 89.5358 107.045C89.6142 107.671 89.763 108.361 89.9824 109.113ZM100.135 109.113H109.865C109.959 108.141 110.014 107.358 110.029 106.763C110.045 106.167 110.053 105.556 110.053 104.929C110.053 104.303 110.045 103.715 110.029 103.167C110.014 102.618 109.959 101.859 109.865 100.887H100.135C100.01 101.859 99.9315 102.618 99.9001 103.167C99.8688 103.715 99.8531 104.303 99.8531 104.929C99.8531 105.556 99.8688 106.167 99.9001 106.763C99.9315 107.358 100.01 108.141 100.135 109.113ZM112.685 109.113H119.924C120.112 108.361 120.253 107.671 120.347 107.045C120.441 106.418 120.488 105.713 120.488 104.929C120.488 104.115 120.441 103.425 120.347 102.861C120.253 102.297 120.112 101.639 119.924 100.887H112.732C112.763 102.015 112.795 102.846 112.826 103.378C112.857 103.911 112.873 104.428 112.873 104.929C112.873 105.588 112.85 106.214 112.803 106.81C112.756 107.405 112.716 108.173 112.685 109.113V109.113ZM112.215 98.161H119.031C118.028 96.0615 116.641 94.2989 114.871 92.8731C113.1 91.4473 111.071 90.4524 108.784 89.8884C109.599 91.0165 110.272 92.2464 110.805 93.5781C111.338 94.9099 111.808 96.4375 112.215 98.161V98.161ZM100.652 98.161H109.395C109.081 96.5629 108.517 94.9882 107.703 93.4371C106.888 91.886 105.964 90.5464 104.929 89.4183C104.021 90.2331 103.23 91.3141 102.556 92.6616C101.882 94.009 101.248 95.8421 100.652 98.161V98.161ZM90.8754 98.161H97.785C98.1297 96.5315 98.5448 95.0588 99.0306 93.7427C99.5163 92.4266 100.182 91.1575 101.028 89.9354C98.7094 90.4994 96.696 91.4708 94.9882 92.8496C93.2805 94.2284 91.9095 95.9988 90.8754 98.161Z"/>
<path id="developer-icon" d="M25.8779 119.086V120.323H43.1221V119.086H25.8779ZM25.8779 91.1155H43.1221V89.8779H25.8779V91.1155ZM22 96.0248V89.8779C22 88.8328 22.385 87.9252 23.1551 87.1551C23.9252 86.385 24.8328 86 25.8779 86H43.1221C44.1672 86 45.0748 86.385 45.8449 87.1551C46.615 87.9252 47 88.8328 47 89.8779V96.0248H43.1221V93.5908H25.8779V96.0248H22ZM25.8779 124.201C24.8328 124.201 23.9252 123.823 23.1551 123.067C22.385 122.311 22 121.396 22 120.323V113.682H25.8779V116.611H43.1221V113.682H47V120.323C47 121.396 46.615 122.311 45.8449 123.067C45.0748 123.823 44.1672 124.201 43.1221 124.201H25.8779ZM39.5743 111.165C39.2717 110.862 39.1136 110.512 39.0998 110.113C39.0861 109.714 39.2305 109.364 39.533 109.061L43.4934 105.101L39.533 101.14C39.2305 100.838 39.0861 100.487 39.0998 100.088C39.1136 99.6895 39.2717 99.3388 39.5743 99.0363C39.8768 98.7613 40.2274 98.6238 40.6262 98.6238C41.025 98.6238 41.3619 98.7613 41.637 99.0363L46.3399 103.739C46.5325 103.932 46.6768 104.145 46.7731 104.379C46.8694 104.612 46.9175 104.853 46.9175 105.101C46.9175 105.348 46.8694 105.589 46.7731 105.823C46.6768 106.056 46.5325 106.27 46.3399 106.462L41.637 111.165C41.3344 111.44 40.9838 111.578 40.585 111.578C40.1862 111.578 39.8493 111.44 39.5743 111.165V111.165ZM27.363 111.165L22.6601 106.462C22.4675 106.27 22.3232 106.056 22.2269 105.823C22.1306 105.589 22.0825 105.348 22.0825 105.101C22.0825 104.853 22.1306 104.612 22.2269 104.379C22.3232 104.145 22.4675 103.932 22.6601 103.739L27.363 99.0363C27.6656 98.7613 28.0162 98.6238 28.415 98.6238C28.8138 98.6238 29.1645 98.7613 29.467 99.0363C29.742 99.3388 29.8864 99.6895 29.9002 100.088C29.9139 100.487 29.7695 100.838 29.467 101.14L25.5066 105.101L29.467 109.061C29.7695 109.364 29.9139 109.714 29.9002 110.113C29.8864 110.512 29.742 110.862 29.467 111.165C29.1645 111.44 28.8069 111.578 28.3944 111.578C27.9818 111.578 27.6381 111.44 27.363 111.165V111.165ZM25.8779 120.323V119.086V120.323ZM25.8779 89.8779V91.1155V89.8779Z"/>
</g>
</svg>
