<?xml version="1.0" encoding="UTF-8"?>
<svg id="Layer_2" data-name="Layer 2" xmlns="http://www.w3.org/2000/svg" viewBox="0 0 155.61 88.49">
  <defs>
    <style>
      .cls-1 {
        fill: #090A0B;
      }
    </style>
  </defs>
  <g id="arrow1">
    <g id="arrow1-2" data-name="arrow1">
      <g>
        <path class="cls-1" d="m5.3,69.59c.16.03.32.07.48.1-.3.1-.75.14-1.27.14,5.06.77,11.61-.6,15.64-2.2,1.51-.19,2.81-.7,2.88-1.14.07-.44-1.09-.65-2.6-.46-.34,0-.73.02-.98-.01-2.25-.42-4.92-.46-7.86-.56.57.07,1.17.14,1.74.21-.85-.02-1.69-.05-2.62.03.11.07.23.14.34.2-1.47-.13-3.19-.07-4.78.11-1.59.21-3.07.55-4.06,1-1.97.92-1.23,1.99,1.75,2.41l1.32.18Z"/>
        <path class="cls-1" d="m11,71.61c-1.8-.09-3.53-.29-5.26-.47l-.35-.12.16.65.03-.04c1.56-.66,4.17-1.07,6.57-1.48l.85-.18c.4-.12.66-.28.74-.42.17-.33-.61-.56-1.74-.5l-1.29.07c-3.17-.05-8.11.22-9.82,1.4-.39.28-.02.58.08.88-.1.44,1.11.76,2.71.71,1.6-.06,2.94-.5,3.02-.94.27.01.55.02.82.03-.21.07-.41.13-.63.2.42-.42,1.86-.58,2.91-.89l1.6-.26-1-.92-.82.21c.07.04.19.09.18.09-1.56.43-3.04.78-4.77,1.1-.72.18-1.45.34-2.18.5-.59.22-.52.51.15.65l.99.17c-.15-.04-.3-.07-.45-.11,2.27.09,4.67.07,6.92.1.36.01.78-.07.96-.19.15-.11-.01-.22-.38-.23Z"/>
        <g>
          <path class="cls-1" d="m3.04,72.34c-.37-.06-.73-.12-1.25-.08-.12.05-.19.08-.22.09.2.04.46.09.73.14.52.1.78-.01.74-.15Z"/>
          <path class="cls-1" d="m1.57,72.35c-.18-.03-.3-.06-.3-.06.07.03.14.06.2.09.06-.01.06-.01.06-.01l.04-.02Z"/>
          <path class="cls-1" d="m94.39,43.08c1.5-.85,3.04-1.66,4.52-2.56l4.39-2.78c2.95-1.83,5.81-3.82,8.61-5.88.19-.14.32-.29.29-.35-.02-.05-.2.01-.38.14-2.8,2.05-5.65,4.04-8.59,5.86l-4.38,2.77c-1.47.91-3.01,1.7-4.51,2.56-.2.12-.34.25-.34.32.02.06.19.02.38-.08Z"/>
          <path class="cls-1" d="m139.19,15.04c-.08.16-.03.2.12.1.13-.08.32-.28.4-.43.07-.13,0-.18-.12-.1-.15.1-.33.3-.4.43Z"/>
          <path class="cls-1" d="m141.69,19.56c-.65.8-1.25,1.58-1.74,2.32-.1.13-.23.26-.34.34.11.03.04.23-.19.53-4.55,5.8-10.24,11.36-16.06,16.6.01.1-.02.23-.11.39-.27.53-1.05,1.31-1.97,1.97l-.71.47c-2.84,1.95-5.64,3.94-8.6,5.67-.52.48-1.15,1-1.87,1.51-1.15.95-2.3,1.9-3.46,2.85-1.16.96-2.41,1.79-3.65,2.69.2-.04.34-.03.39.05.06.22-.46.72-1.17,1.14l-1.06.65,3.17-1.69c.15-.09.29-.16.43-.21.56-.34,1.13-.67,1.7-1.01.56-.36,1.11-.74,1.66-1.12,9.83-6.49,18.04-14.04,25.43-22.04.11-.15.32-.33.47-.4.11-.03.15.03.02.19-4.33,5.42-7.99,10.4-13.88,15.7-3.48,3.18-7.19,6.04-10.92,8.96-.92.75-1.89,1.43-2.86,2.1-.98.68-1.95,1.36-2.93,2.04-1.97,1.36-3.95,2.74-6.04,3.97-8.88,4.92-17.26,9.23-26.83,13.27-6.45,2.77-12.95,4.88-19.45,6.81-6.54,1.77-13.1,3.38-19.86,4.53-5.04,1.06-9.83.78-10.64-.43-.48-.74.57-1.57,2.55-2.38-.41.05-.81.11-1.22.16l-1.95.08c-1.85.07-3.45-.05-4.47-.38l-1.41-.41c-1.9-.84-4.86-1.43-6.39-2.42l.3-.43-.35-.09c-1.15-.21-1.94-.55-2.22-.94l.08-.5c.2-.58.73-1.14,1.59-1.7-.05-.21.05-.42.27-.62-.8-.45-1.19-.94-.63-1.57-.47-.11-.4-.33.13-.49.18-.05.41-.1.64-.12h0c-.26-.11-.34-.14-.68-.26-.45-.01-.72-.02-.72-.02-1.2,0-1.2.01-2.25-.02-.9-.13-1.47-.34-1.47-.34-1.03-.82-1.03-.82-.89-1.21.06-.04.12-.08.19-.12-.79-.09-.84-.1-1.06-.12-.22-.06-.38-.13-.38-.13q-.04-.2-.18-.27c-.05-.08-.04-.15-.04-.15q.43-.25.44-.31c.1-.07.24-.12.24-.12.51-.09.71-.13.8-.15,1.12.47,1.13.47,1.13.47l.23-.19.27.23-.16-.21.56.11-.64-.16c1.32.01,1.32.02,1.84-.03.55-.01,1.01-.1,1.07-.11-.05-.07-.06-.11-.06-.11q1.41,0,2.78-.02c.13.04.23.08.33.12.13-.07.39-.12.66-.13l.72-.03c.05-.02.1-.03.15-.05,0,0,0-.02,0-.02.24-.06.41-.11.59-.16.12-.04.12-.04.12-.04h0c.41-.11,1-.27,2.57-.69.42,0,.82-.01,1.2-.02-.12-.02-.24-.04-.36-.06-.23-.05-.05-.26-.17-.27-1.51-.06-3.08-.06-4.67-.03-1.59,0-3.2.02-4.81.03-.57.07-1.12-.02-1.21-.18-.08-.16.32-.32.9-.38,6.39-1.44,14.21-2.15,20.89-2.41,1.74-.18,3.48-.43,5.23-.66l-.27-.05,1.38-.1.15-.02-1.09-.17-.73.03c-4.04.61-7.79.63-11.72.79-2.12.05-3.95-.02-5.96-.1-.51.03-.88-.06-.83-.21.05-.14.51-.29,1.01-.32,6.57-.89,14.01-1.87,19.47-1.69,1.19-.25,2.35-.4,3.35-.38h.05c-.27-.05-.53-.1-.79-.14.9-.12,1.43.02,2.26-.05l-.39-.33c4.43-.72,9.09-2.02,13.23-2.65.16-.03.32-.07.47-.1.82-.39,1.65-.75,2.51-1.14.86-.4,1.77-.78,2.77-1.13-.69.18-1.37.36-2.06.54,1.4-.65,2.81-1.23,4.37-1.73,2.13-.63,4.36-1.38,6.43-1.82,1.03-.23,2.02-.41,2.91-.52.88-.13,1.66-.22,2.31-.2,8.01-3.33,15.7-7.41,23.04-11.91.37-.24.76-.37.89-.31.1.08-.09.33-.47.57-5.13,3.51-10.66,6.58-16.32,9.42,2.42-1.06,4.88-2.07,7.31-3.2,2.39-1.19,4.79-2.4,7.2-3.66.59-.35,1.18-.74,1.77-1.11.58-.37,1.19-.69,1.8-1,1.49-.89,2.96-1.76,4.43-2.63,1.42-.95,2.82-1.89,4.24-2.84,2.83-1.88,5.61-3.87,8.33-6.14,4.67-3.84,8.55-7.43,12.74-11.73,5.86-6.06,10.77-11.92,16.14-18.21.69-.85,1.5-1.51,1.82-1.41.32.09.03.89-.66,1.76-5.25,6.92-10.88,13.5-17.13,19.64-6.26,6.11-13.08,11.87-20.79,16.81-1.66,1.07-3.25,2.18-4.91,3.17.04.02.09.05.11.08.09.14.01.37-.18.64.97-.53,1.89-1.13,2.83-1.72.94-.58,1.89-1.17,2.84-1.75,1.23-.94,2.49-1.85,3.71-2.8,1.22-.97,2.44-1.94,3.66-2.92,2.46-1.95,4.93-3.98,7.53-6,3.56-2.79,6.86-5.25,10.14-7.9,3.73-3.8,7.24-7.79,10.69-11.89.13-.17.3-.32.39-.34.1-.02.06.11-.06.28-2.17,3.01-4.56,5.97-7.09,8.86.56-.29.99-.37,1.15-.15.17.23.01.74-.37,1.38l1.86-1.85c.38-.38.76-.61.85-.51.1.11-.12.5-.48.87-2.52,2.55-5.1,5.02-7.75,7.42-3.06,3.02-6.22,5.91-9.52,8.68.58-.23,1.07-.33,1.39-.26h0c.51-.43,1.03-.85,1.54-1.28,8.9-8.4,17.37-17.51,25.46-27.08.16-.19.32-.31.38-.27.05.04-.03.22-.17.38-2.44,2.89-4.92,5.75-7.44,8.55h.01c.13-.09.2-.07.13.09-.07.13-.27.35-.4.43-.15.1-.19.04-.13-.09-4.69,5.22-9.53,10.25-14.48,15.08,4.8-4.25,9.4-8.73,13.89-13.29.42-.56.84-1.13,1.26-1.7.12-.15.32-.31.42-.33.07,0,.03.15-.1.3l-.36.47c.85-.86,1.67-1.39,1.91-1.14.21.28-.29,1.24-1.17,2.15-2.26,2.53-4.61,4.97-7.03,7.34l-.75.81-.69.88c3.92-3.52,7.7-7.2,11.34-10.97.3-.33.63-.56.72-.48.1.07-.07.41-.37.75-5.84,7.2-12.38,14-19.5,20.24-2.05,2.39-4.17,4.75-6.41,7.09.33-.23.66-.47.98-.73,8.22-6.36,13.79-13.34,20.49-20.66.16-.19.34-.3.41-.28.06.02-.01.19-.19.37-3.24,3.63-6.09,7.07-9.46,10.58-2.8,2.9-5.55,5.57-8.23,8.21,5.9-4.9,10.97-10.27,16.09-15.81.21-.25.47-.47.66-.57-.01-.04.01-.11.07-.19.56-.78,1.17-1.61,1.83-2.43.12-.16.31-.33.44-.36.11-.04.07.09-.06.28ZM24.94,72.24c-.07-.02-.14-.03-.19-.04.2,0,.42.02.66.02l.97.35s-.71-.16-1.43-.33Zm-11,3.24h0c-.32-.13-.55-.22-.55-.22.22.09.4.16.54.22Zm67.6-23.49c-1.72.82-3.45,1.61-5.19,2.36-1.75.73-3.54,1.33-5.33,1.93l2.5-1.15,2.02-.73,1.99-.81c1.33-.53,2.67-1.07,4-1.61Zm-64.32,19.47c1.03.13,1.86.34,2.64.57.66-.13,1.34-.28,2.04-.36,1.88-.23,3.72-.45,5.53-.67-.26-.13.17-.18.39-.24.22-.05.44-.11.67-.16-1.93.25-3.87.39-5.85.54-1.78.16-3.71.33-5.41.33Zm-13.41,1.87c-.06-.02-.11-.03-.17-.05l.35-.27s-.08.14-.18.33Zm-.55.46c.09,0,.18.01.28.02-.09.1-.19.07-.28-.02Zm2.57.16c-.16-.06-.25-.09-.37-.11.37.11.37.11.37.11Zm2.38,7.37l.93-1.35-1.02,1.3.1.04Z"/>
        </g>
      </g>
      <g>
        <path class="cls-1" d="m83.72,7.38c.03.07.06.14.1.21-.14,0-.3-.08-.46-.22,1.17,1.94,3.9,2.61,5.83,2.3.53.28,1.15.19,1.36-.18.21-.38-.04-.88-.56-1.15-.1-.1-.22-.19-.28-.29-.49-.94-1.2-1.77-2.01-2.58l.4.63c-.24-.23-.46-.48-.77-.64v.26c-.71-1.01-2.07-1.56-3.15-1.28-1.08.28-1.47,1.36-.77,2.46l.31.49Z"/>
        <path class="cls-1" d="m84.46,10.63c-.51-.59-.98-1.19-1.42-1.81l-.04-.2-.29.59.03-.03c.84-.14,1.87.19,2.82.49l.35.08c.19,0,.34-.07.44-.17.21-.25.08-.64-.29-.9l-.43-.29c-.93-.91-2.57-1.91-3.76-1.37-.27.13-.33.48-.46.75-.28.34-.06.92.48,1.29.55.36,1.2.37,1.45,0l.24.24c-.1,0-.2,0-.3,0,.35-.24.9-.02,1.38,0l.62.21.16-1.07-.36-.04s.01.13,0,.13c-.69-.06-1.35-.11-2.05-.32l-.95-.14c-.31.04-.44.29-.3.58l.23.4c-.03-.07-.06-.14-.09-.21.67.68,1.45,1.29,2.16,1.93.1.11.28.16.4.11.1-.06.1-.19,0-.3Z"/>
        <g>
          <path class="cls-1" d="m81.54,9.11c-.09-.15-.17-.29-.36-.39-.07.01-.1.02-.12.02.04.08.1.19.16.3.12.22.26.19.32.06Z"/>
          <path class="cls-1" d="m81.06,8.74c-.04-.08-.06-.13-.06-.13,0,.04.01.08.02.13.02,0,.02,0,.02,0,0,0,0,0,.02,0Z"/>
          <path class="cls-1" d="m119.52,14.06c2.7-.39,5.38-1.08,7.97-2.06.09-.03.14-.1.12-.16-.02-.05-.11-.08-.18-.04-2.58.97-5.23,1.64-7.92,2.04-.09.02-.15.08-.15.14,0,.06.08.1.17.09Z"/>
          <path class="cls-1" d="m141.68,10.24c-.03.08.01.13.1.12.08-.01.17-.08.2-.16.02-.07-.03-.13-.1-.12-.09.01-.18.09-.2.16Z"/>
          <path class="cls-1" d="m144.16,14.56c-.32.37-.62.72-.85,1.09-.05.07-.12.11-.18.13.08.07.06.19-.05.33-2.28,2.69-5.35,4.93-8.53,6.91.01.08,0,.18-.04.28-.13.34-.55.68-1.06.86l-.4.11c-1.58.5-3.15,1.02-4.76,1.35-.28.21-.63.41-1.02.56-1.25.75-2.57,1.37-3.95,1.96.11.05.18.12.2.21.02.22-.28.45-.67.53l-.59.14c.58-.07,1.17-.13,1.75-.21.08-.02.16-.02.23-.02.62-.16,1.25-.33,1.88-.52,5.5-1.73,10.14-4.76,14.06-8.26.05-.07.17-.14.26-.13.07.02.1.08.03.16-2.21,2.64-4.17,5.28-7.53,7.44-4,2.53-8.37,4.53-13.16,5.85-5.09.81-9.84,1.51-15.14,1.54-3.56,0-7.07-.37-10.38-1.02-1.56-.3-3.3-.7-4.95-1.15-1.66-.47-3.32-.99-4.96-1.59-2.54-.75-4.35-2.6-4.1-3.89.15-.79.98-1.22,2.11-1.27l-.54-.26-.8-.53c-.75-.52-1.3-1.15-1.53-1.75l-.34-.78c-.31-1.31-1.1-2.72-1.15-3.99l.33-.28-.08-.18c-.31-.51-.41-1.03-.3-1.45l.29-.4c.38-.43.86-.75,1.46-.98.09-.19.23-.34.42-.45-.05-.6.09-1.13.6-1.51-.1-.22.04-.39.3-.38.09,0,.19.03.28.07h0c-.03-.17-.04-.22-.09-.41-.15-.13-.23-.22-.23-.22q-.39-.34-.74-.64c-.24-.35-.31-.67-.31-.67.11-.97.11-.96.37-1.25.04-.02.08-.03.12-.05-.2-.28-.22-.3-.28-.38-.04-.11-.05-.21-.05-.21q.1-.18.09-.27c.03-.08.07-.14.07-.14q.28-.09.31-.14c.07-.03.15-.04.15-.04.21.06.3.08.34.09.11.68.11.69.11.69l.18-.1-.04.26.06-.22.13.24-.12-.3c.42.35.42.35.61.46.18.14.37.19.4.2.02-.07.04-.11.04-.11q.46.37.9.73c.02.07.03.13.05.19.08-.03.19,0,.28.06l.24.18h.07s0-.01,0-.01c.11.01.18.02.27.03.06,0,.06,0,.06,0h0c.19.02.45.04,1.16.1.14.1.27.2.39.31l-.08-.15c-.05-.1.11-.24.07-.28-.91-.92-1.98-1.69-2.98-2.54-.21-.1-.34-.31-.29-.46.06-.15.27-.19.49-.09,2.76.44,5.41,1.91,7.58,3.65.61.36,1.24.67,1.88.99l-.06-.13.47.32.05.03-.28-.47-.24-.19c-1.49-.68-2.65-1.75-3.9-2.71-.67-.52-1.16-1.14-1.73-1.71-.17-.11-.23-.29-.14-.4.08-.11.29-.12.46-.01,2.38.96,4.93,2.23,6.53,4.03.45.17.86.38,1.16.71h.02s-.19-.36-.19-.36c.32.17.43.47.72.66v-.42c.81.37,1.67.63,2.56.92.94.3,1.77.59,2.54,1.04l.18.07c.75-.15,1.5-.3,2.33-.22-.27-.08-.54-.17-.81-.25.62-.08,1.23-.11,1.86-.02,1.71.25,3.59.98,4.52,2.04,3.46-.05,6.9-.44,10.16-1.39.17-.05.34,0,.39.11.04.11-.05.25-.22.3-2.32.9-4.81,1.44-7.35,1.73,2.14.11,4.31.09,6.48-.26.27-.05.54-.14.82-.21.27-.08.54-.1.82-.11,2.73-.61,5.33-1.31,7.85-2.69,2.14-1.18,3.91-2.38,5.76-3.93,2.59-2.19,4.65-4.43,7.03-6.63.29-.32.73-.44.98-.25.25.18.22.61-.08.94-2.21,2.72-4.69,5.26-7.56,7.41-2.86,2.15-6.12,3.89-9.73,4.93-.77.26-1.55.41-2.32.6.02.04.04.07.05.12.04.16,0,.33-.08.49.89-.2,1.8-.34,2.7-.57,2.36-1.08,4.55-2.38,7.05-3.43,1.71-.73,3.36-1.27,5.01-1.95,1.76-1.37,3.38-2.9,4.95-4.47.05-.07.14-.11.21-.09.06.02.07.1.01.17-.91,1.29-1.98,2.51-3.15,3.65.32,0,.59.12.73.35.15.24.14.57-.02.89l.92-.65c.19-.13.41-.15.49-.04.09.12,0,.32-.18.45-1.25.92-2.55,1.76-3.88,2.55-1.5,1.1-3.07,2.1-4.71,3.01.31.06.58.17.78.37h0s.78-.4.78-.4c4.42-3.13,8.51-6.6,12.49-10.28.07-.08.17-.1.22-.05.05.05.03.14-.05.2-1.21,1.12-2.43,2.21-3.66,3.28h0c.08-.01.13.03.1.12-.02.07-.12.15-.2.17-.09.01-.13-.05-.1-.12-2.3,2-4.66,3.91-7.11,5.73,2.42-1.43,4.74-3.01,7.02-4.65l.57-.76c.06-.06.17-.1.23-.08.05.03.05.12-.01.18l-.16.21c.43-.32.92-.37,1.13-.11.2.28,0,.78-.44,1.13-1.14,1-2.34,1.93-3.58,2.79l-.38.32-.32.41c2.05-1.18,4.05-2.46,5.96-3.86.15-.13.35-.17.43-.09.08.09.02.27-.13.41-2.88,3.09-6.29,5.79-10.05,7.98-1.04,1.1-2.12,2.2-3.31,3.25l.53-.2c2.23-.97,4.07-2.34,5.76-3.79,1.69-1.46,3.23-3.02,4.96-4.5.08-.08.19-.1.24-.06.05.04.02.14-.07.21-1.66,1.5-3.08,3.06-4.85,4.51-1.46,1.21-2.93,2.26-4.36,3.37,3.22-1.67,5.88-3.98,8.56-6.24.11-.11.25-.18.36-.19-.01-.03,0-.08.02-.12.25-.4.57-.76.89-1.14.06-.08.16-.13.24-.11.07.01.06.09,0,.18Zm-55.5.61s-.03-.07-.05-.1c.06.07.13.14.21.21l.18.59s-.17-.35-.34-.71Zm-5.16-.39h0c-.04-.2-.08-.35-.08-.35.03.14.05.25.07.35Zm30.13,1.89c-1.55.11-3.09.07-4.61-.27.37-.02.74-.03,1.11-.08.58.06,1.16.13,1.74.19.58.05,1.17.1,1.76.15Zm-27.12-4.45c.27.41.44.83.59,1.25.28.06.55.16.82.29.72.34,1.41.69,2.09,1.05-.03-.2.13-.11.23-.1l.28.06c-.72-.4-1.42-.82-2.12-1.27-.63-.41-1.33-.8-1.88-1.28Zm-5.26-2.08s-.02-.06-.03-.09l.26-.14s-.1.1-.23.23Zm-.43.24l.08.09c-.09.06-.1,0-.08-.09Zm.76.83c-.02-.09-.03-.15-.06-.2q.06.2.06.2Zm-3.05,6.92l1.04-.88-1.05.82v.07Z"/>
        </g>
      </g>
      <g>
        <path class="cls-1" d="m141.68,72.31c0-.08-.02-.18-.02-.26.15.07.28.25.39.47-.55-2.54-2.72-4.78-4.65-6.06-.33-.66-.92-1.09-1.33-.95-.41.14-.47.81-.13,1.5.04.17.11.36.11.5-.02,1.27.28,2.67.81,4.1-.05-.31-.11-.63-.16-.94.15.42.28.83.54,1.24l.11-.27c.33,1.55,1.69,3.12,2.94,3.45,1.27.33,1.92-.64,1.55-2.12l-.15-.67Z"/>
        <path class="cls-1" d="m142.26,68.77c.21.83.42,1.65.63,2.49l-.03.21.5-.42h-.04c-.88-.28-1.77-1.17-2.52-2.05l-.3-.29c-.18-.12-.36-.16-.49-.12-.32.09-.37.55-.12,1.03l.29.56c.51,1.48,1.92,3.46,3.31,3.45.32,0,.48-.33.69-.54.38-.22.34-.88-.06-1.5-.41-.61-1.03-.94-1.42-.73l-.14-.36c.1.05.2.1.3.15-.43.05-.89-.46-1.33-.77l-.51-.57-.61.92.33.26s.04-.13.05-.13c.65.48,1.29.9,1.91,1.47l.91.62c.32.11.53-.08.5-.43l-.09-.5c0,.08.01.16.02.24-.43-.98-.94-1.96-1.31-2.94-.05-.16-.2-.3-.32-.32-.12,0-.18.12-.13.28Z"/>
        <g>
          <path class="cls-1" d="m144.46,71.7c.04.18.07.36.23.54.07.02.11.03.13.03-.02-.1-.04-.23-.06-.37-.04-.26-.19-.31-.29-.21Z"/>
          <path class="cls-1" d="m144.82,72.28c.01.09.02.15.02.15,0-.05.01-.09.02-.13-.02-.02-.02-.02-.02-.02,0,0,0,0-.02,0Z"/>
          <path class="cls-1" d="m128.88,29.29c.47-3.53,1.3-6.99,2.44-10.32.04-.11.03-.22-.03-.24-.05-.02-.13.05-.16.15-1.16,3.34-1.98,6.8-2.46,10.35-.01.12.03.22.09.24.06.01.12-.07.14-.18Z"/>
          <path class="cls-1" d="m142.89,8.39c0,.09.05.12.13.09.07-.03.14-.12.14-.21,0-.07-.06-.12-.13-.09-.08.04-.14.13-.14.21Z"/>
          <path class="cls-1" d="m146.6,11.7c-.14.37-.25.73-.28,1.09-.01.06-.05.12-.1.15.1.04.14.15.1.29-.72,2.72-1.66,5.38-2.14,8.08.07.04.13.11.18.19.17.26.17.65.02,1l-.15.26c-.26.53-.48,1.07-.68,1.62-.23.54-.41,1.1-.61,1.66.07.26.08.54.05.84.15,1.04.29,2.08.43,3.09.07-.06.16-.09.25-.08.21.04.36.28.33.54v.4c.07-.38.13-.76.25-1.13.01-.05.03-.1.05-.15.05-.42.1-.84.15-1.26.33-3.74.7-7.4,1.56-11.22,0-.07.05-.15.12-.18.06,0,.12.03.12.1-.11,2.62.49,4.95.51,7.44.06,2.98.39,5.75.96,8.43,0,1.41.24,2.77.63,4.14.38,1.37.91,2.76,1.52,4.34.44,1.15.86,2.27,1.28,3.37.39,1,.77,1.99,1.18,2.96.81,1.95,1.68,3.85,2.67,5.74.87,1.34.83,3.04-.16,3.89-.61.51-1.43.56-2.23.19l.2.37.2.65c.19.62.21,1.25.02,1.78l-.2.69c-.52,1.09-.65,2.45-1.21,3.52l-.4.13-.02.17c0,.52-.14.99-.42,1.31l-.42.25c-.51.25-1.07.37-1.68.36-.16.13-.35.21-.57.24-.23.54-.57.97-1.19,1.1,0,.24-.2.34-.43.22-.08-.04-.16-.11-.22-.18h0c-.04.16-.06.21-.09.41.07.18.11.3.11.3q.23.47.43.89c.09.42.04.75.04.75-.44.87-.44.87-.78,1.04-.05,0-.09,0-.14,0,.11.36.11.38.14.48,0,.12-.02.22-.02.22q-.15.14-.17.23c-.05.06-.11.1-.11.1q-.3-.02-.35.01c-.08,0-.16-.02-.16-.02-.2-.15-.27-.2-.31-.23.12-.71.12-.72.12-.72l-.21.02.13-.24-.14.18-.04-.28v.35q-.27-.53-.42-.72c-.13-.22-.29-.36-.31-.38-.04.06-.08.09-.08.09-.3-.58-.3-.57-.57-1.14,0-.08.02-.14.04-.2-.08-.02-.18-.09-.23-.21l-.15-.29-.06-.04s-.01.01-.01.01c-.1-.07-.16-.12-.24-.17-.05-.03-.05-.03-.05-.03h0c-.16-.13-.4-.3-1.03-.77-.08-.18-.15-.35-.2-.52,0,.06,0,.12,0,.19,0,.13-.22.15-.21.21.39,1.39,1.09,2.75,1.78,4.1.18.2.23.48.13.6-.11.12-.34.05-.52-.16-2.65-1.87-4.6-5.26-5.32-8.45-.3-.79-.59-1.57-.89-2.35l-.04.15c-.05-.22-.1-.43-.15-.65l-.02-.07-.11.6.06.35c.72,1.81,1.08,3.63,1.75,5.46.35.98.53,1.91.85,2.87.12.22.11.44-.03.49-.13.05-.34-.09-.46-.31-1.99-2.62-3.61-6.1-3.61-8.97-.24-.54-.4-1.1-.39-1.62v-.03s-.13.45-.13.45c-.12-.43.02-.75-.05-1.16l-.31.3c-.64-2.09-1.6-4.27-1.67-6.36-.02-.08-.03-.15-.04-.23-.55-.73-1.05-1.49-1.39-2.47.06.35.12.68.18,1.03-.19-.33-.37-.68-.52-1.01-.14-.31-.26-.63-.35-.99-.52-1.93-.52-4.48.29-5.83-1.03-4.09-1.58-8.56-1.6-13.02,0-.23.1-.43.22-.47.12-.02.22.14.23.37.25,3.19.63,6.36,1.27,9.4-.17-2.6-.17-5.24-.05-7.93,0-.34-.01-.69-.02-1.03,0-.34.06-.68.13-1.01.24-3.42.88-6.6,1.59-10.03.61-2.93,1.34-5.48,2.35-8.32,1.43-3.98,3.16-7.53,5.83-10.75.32-.45.83-.69,1.11-.54.28.15.22.63-.1,1.07-4.76,7.18-7.58,15.13-9.31,23.73-.16.94-.35,1.85-.46,2.78.04,0,.08-.01.13,0,.17.02.31.13.42.29.14-1.04.41-2.06.65-3.08.19-2.93.67-5.92,2.01-8.76.92-1.95,2.11-3.53,3.33-5.07,1.03-2.24,2.19-4.43,3.57-6.52.04-.09.13-.16.2-.15.07,0,.08.09.04.18-.74,1.59-1.5,3.18-2.2,4.8.31-.13.6-.14.82.02.23.17.33.48.32.84.21-.32.41-.65.63-.96.14-.19.33-.29.44-.21.12.09.11.3-.01.49-.85,1.29-1.66,2.61-2.38,3.99-.71,1.73-1.35,3.47-1.86,5.25.26-.18.54-.27.81-.27h0c.09-.26.18-.54.28-.79,1.18-5.07,3.75-10.02,7.46-13.98.07-.08.16-.11.22-.07.05.04.04.14-.03.21-1.11,1.19-2.12,2.46-3.03,3.81h0c.07-.03.13,0,.13.08,0,.07-.07.18-.14.21-.08.03-.13-.01-.13-.09-1.67,2.51-2.93,5.27-3.78,8.08,1.06-2.49,2.38-4.88,4.01-7.03l.32-.86c.04-.08.13-.14.19-.13.06.01.07.1.04.18l-.09.24c.31-.41.77-.55,1.03-.35.26.23.21.72-.09,1.14-.75,1.16-1.46,2.34-2.14,3.53l-.17.42-.08.47c1.15-1.79,2.44-3.48,3.84-5.04.11-.15.27-.21.37-.14.1.07.09.25-.01.39-1.81,3.2-3.38,6.5-4.53,9.92.02,1.29.12,2.56.28,3.81l.15-.41c.57-1.78.87-3.52,1.28-5.28.41-1.75.9-3.53,1.83-5.22.04-.09.13-.13.18-.1.06.02.07.11.02.19-.86,1.67-1.26,3.38-1.73,5.13-.37,1.46-.68,2.85-.76,4.24.79-2.6,1.38-5.29,2.62-7.83.04-.12.13-.21.22-.24-.02-.02-.04-.06-.03-.1.05-.39.17-.77.3-1.15.02-.08.09-.14.17-.14.06,0,.09.07.07.16Zm-5.5,50.56s-.02.07-.03.11c0-.1-.02-.2-.02-.31l.24-.58s-.1.39-.19.78Zm4.02,3.32h0c-.06.19-.11.33-.11.33.05-.14.08-.24.11-.33Zm-14.47-28.5c.17,1.85.34,3.67.4,5.49l-.33-1.29c-.1-1.38-.12-2.8-.07-4.21Zm10.53,29.02c-.02-.53.07-.99.18-1.44-.2-.23-.38-.49-.52-.77-.39-.76-.73-1.52-1.02-2.29-.1.17-.18-.01-.24-.09l-.18-.25c.29.83.59,1.66.89,2.52.27.77.66,1.56.89,2.33Zm3.93,4.74s0,.06,0,.1l-.3.02s.13-.05.31-.11Zm.5-.05l-.04-.12c.1-.02.1.03.04.12Zm-.4-1.11c-.02.09-.03.15-.02.21q.02-.21.02-.21Zm5.72-4.94l-1.28.39,1.26-.34.02-.06Z"/>
        </g>
      </g>
    </g>
  </g>
</svg>