<?xml version="1.0" encoding="UTF-8"?>
<svg id="Layer_2" data-name="Layer 2" xmlns="http://www.w3.org/2000/svg" viewBox="0 0 152.64 78.72">
  <defs>
    <style>
      .cls-1 {
        fill: #090A0B;
      }
    </style>
  </defs>
  <g id="arrow2">
    <g id="awrrow2">
      <path class="cls-1" d="m42.9,78.58c.01-.2-.61-.37.33-.52.74-.09,1.45-.12,2.14-.12.69-.02,1.36-.03,2.04-.02,1.35-.02,2.71.04,4.18-.27l.17-.35c1.15-.07,2.33-.15,3.53-.23,1.2-.1,2.41-.24,3.64-.37,2.24-.37,4.43-.94,6.63-1.44,2.19-.56,4.35-1.18,6.5-1.84-.14-.08-.23-.17.19-.34,1.75-.64,4.27-1.23,6.79-2.13.37-.15.73-.3,1.09-.45.26-.17.3-.3.32-.38,1.15-.37,2.14-.79,3.08-1.11,11.93-5.45,23.1-12.83,33.57-22.37,2.12-2.13,4.18-4.31,6.18-6.37,3.04-2.96,6.98-6.69,9.76-9.76-.65-.16.62-2.19,1.68-4.13,1.08-1.93,1.97-3.76.9-3.36,1.75-2.07,4.2-5.32,4.06-5.68-.21-.54-.22-1.39.24-2.88.47-1.48,1.43-3.6,3.08-6.72,1.39-2.38,3.84-5.83,4.12-6.78.48-1.48-2.34,2.76-1.87,1.28-5.21,8.68-11.2,16.78-17.85,24.26-6.67,7.46-14.09,14.29-22.44,20.19-1.36,1.08-4.76,3.64-9.56,6.47-4.78,2.85-10.95,6-17.56,8.49-6.6,2.51-13.6,4.38-19.72,5.51-6.11,1.16-11.31,1.53-14.33,1.68l-1.09.07c-.82.04-1.67.07-2.53.11-.86.01-1.74.03-2.62.04-1.76.06-3.56,0-5.32.01-3.52-.06-6.93-.17-9.74-.28-2.58-.01-5.23-.04-7.87-.18,1.16.39,2.25.76,3.2,1.08-2.65-.4-5.28-.92-6.33-.92-2.85-.3-3.51-.23-3.22.17.3.39,1.56,1.01,2.58,1.6,1.51.65-.73.75,1.69,1.57-1.79-.36-2.69-.53-4.48-.94-.28.31,5.56.95,4.21,1.23-1.71-.46-3.69-.64-5.47-1.08.52.6,6.19,1.47,5.84,1.81-1.01-.06-4.96-1.58-5.41-1.15-.09.09,1.7.52,2.61.69-2.8-.48-4.98-.84-5.86-.83-.87,0-.45.42,2.03,1.31-1.77-.42-4.2-1.28-6.06-1.72,0,0,0,0,.01.01.92.26,2.48.82,3.34,1.02-1.06-.26-2.1-.57-3.15-.86.15.12.31.24.49.37.77.27,1.54.55,2.37.76-.7-.17-1.4-.38-2.1-.57.48.31,1.04.65,1.67.97,2.42.98,4.76,2.02,6.14,2.32,11.12,2.56,22.67,3.69,34.13,3.13Z"/>
      <path class="cls-1" d="m97.09,17.41c.01-.2-.21-.41.15-.49,1.15-.15,2.06.55,3.22.36l.09-.33c.89.16,1.81.33,2.76.47,1.75-.05,3.48-.19,5.2-.37-.05-.12-.08-.23.09-.28.71-.12,1.71-.06,2.74-.08.15-.03.3-.06.45-.09.11-.08.13-.2.15-.27.46-.02.88-.02,1.26-.02,4.99-1.03,9.96-2.39,15.21-4.12,1.08-.51,2.16-1.02,3.22-1.39,1.58-.46,3.68-.71,5.24-1.07-.5-1.05,3.1-2.57,2.05-3.51,1.02-.24,2.55-.64,2.53-.98-.04-1.01.42-2.3,2.85-3.68.98-.45,2.66-.59,2.95-.9.46-.49-1.53-.21-1.07-.7-7.57,2.17-14.84,4.4-22.69,5.62-1.29.45-6.46,1.42-11.95,1.87-5.48.5-11.25.44-13.59.25h-.43c-2.56-.13-5.67-.24-7.88,0-1,.2-2.06.41-3.11.62.45.24.87.47,1.23.7-1.03-.13-2.06-.26-2.48-.11-2.26.23-1.09.95-.32,1.83.58.42-.32.84.61,1.3-.7-.1-1.05-.15-1.75-.25-.12.31,2.19.09,1.64.57-.66-.21-1.45-.1-2.15-.2.19.47,2.42.46,2.27.88-.4.06-1.92-.83-2.12-.3-.04.11.67.21,1.02.26-2.2-.09-3.48.23-1.55,1.1-.69-.11-1.65-.47-2.39-.5h0c.36.08.98.27,1.32.33l-1.25-.2c.05.08.12.17.19.25.3.11.61.2.93.26l-.83-.13c.18.2.4.41.64.6.94.49,1.84,1.11,2.38,1.19,4.34.79,8.76,1.3,13.17,1.48Z"/>
      <path class="cls-1" d="m150.96,53.24c-.2.02-.37.26-.51-.07-.32-1.05.25-1.98-.05-3.03l-.33-.04c.05-.84.15-1.72.23-2.62-.18-1.62-.36-3.22-.54-4.84-.12.05-.23.07-.28-.09-.13-.67-.05-1.6-.03-2.57-.02-.14-.05-.28-.07-.42-.07-.11-.19-.13-.26-.15,0-.44.02-.83.05-1.19-.69-4.74-1.28-9.62-1.52-14.98-.18-1.15-.38-2.3-.37-3.4.06-1.62.56-3.63.85-5.17-1.2.06-1.09-3.84-2.37-3.29.2-1.05.57-2.61.25-2.76-.91-.44-1.87-1.47-1.81-4.43.11-1.14.94-2.73.83-3.16-.15-.69-1.02,1.26-1.17.58-2.36,8.16-3.23,16.35-3.83,24.84.16,1.47-.03,7.08.22,12.95.19,5.87.8,11.97,1.02,14.47l.07.45c.28,2.72.89,6,1.75,8.19.46.99.99,1.98,1.52,2.96.08-.52.18-1.01.29-1.43.18,1.06.39,2.12.68,2.49.98,2.13,1.26.73,1.84-.29.2-.68.89.03,1.03-1,.13.69.2,1.03.34,1.73.33,0-.63-2.08,0-1.72.02.69.38,1.38.52,2.07.37-.33-.37-2.4.09-2.39.17.35-.16,2.05.4,2.06.11,0-.02-.68-.09-1.02.63,2.06,1.42,3.07,1.55,1.05.13.66.14,1.64.38,2.32h0c-.07-.36-.1-.98-.17-1.3l.26,1.19c.06-.08.11-.17.17-.26,0-.31-.03-.62-.09-.92l.17.79c.12-.24.24-.5.33-.78.12-1.01.42-2.01.32-2.51-.65-4.09-1.18-8.19-1.66-12.28Z"/>
    </g>
  </g>
</svg>