<?xml version="1.0" encoding="UTF-8"?>
<svg id="Layer_2" data-name="Layer 2" xmlns="http://www.w3.org/2000/svg" viewBox="0 0 151.58 83.39">
  <defs>
    <style>
      .cls-1 {
        fill: #090A0B;
      }
    </style>
  </defs>
  <g id="arrow3">
    <g id="arrow3-2" data-name="arrow3">
      <g>
        <path class="cls-1" d="m3.2,80.56c-.37,0-.73.01-.73.01,0,.03,0,.06.01.1.26-.04.49-.07.71-.11Z"/>
        <path class="cls-1" d="m3.88,79.37h-.23s.03.06.05.08c.06-.03.11-.06.18-.08Z"/>
        <path class="cls-1" d="m2.49,80.67c.06.36.37.71,0,1.07-.4,0-1.21.02-1.61.02-.4.2,0,.39,0,.59-.4,0-.81.01-.81.11-.26.26.17.43.96.47,1.74-1.11,6.13-1.62,1.45-2.27Z"/>
        <path class="cls-1" d="m5.66,79.8l-2.1.07c-.21.23-.51.46-.29.68,1.09-.19,1.75-.41,2.39-.74Z"/>
        <path class="cls-1" d="m147.77,10.43s-.05-.09.25-.31c-.09.11-.17.21-.25.31.04.04.12.07.03.23.78-1.16,1.7-2.51,2.63-3.79.04-.23.08-.45.1-.66-2.3,3.16-4.75,6.19-6.43,8.96,1.47-1.73,2.33-3.04,3.67-4.76Z"/>
        <path class="cls-1" d="m150.25,5.62c.08-.11.16-.21.23-.32-.28.23-.28.28-.23.32Z"/>
        <path class="cls-1" d="m99.94,53.35c-2.07,1.28-3.73,2.66-5.48,3.96,1.96-1.19,3.9-2.48,5.74-3.66,1.81-1.23,3.5-2.39,4.87-3.49-1.68,1.1-3.4,2.14-5.13,3.19Z"/>
        <path class="cls-1" d="m85.43,63.36c1.42-.56,2.66-1.18,3.78-1.85,1.13-.66,2.15-1.34,3.13-2.04-2.12,1.17-4.21,2.38-6.36,3.47-.18.14-.37.28-.55.42Z"/>
        <path class="cls-1" d="m88.19,61.34c1.24-.62,2.34-1.28,3.37-1.94,1.02-.67,1.96-1.39,2.89-2.09-2.2,1.4-4.37,2.73-6.26,4.04Z"/>
        <path class="cls-1" d="m127.04,23.73c1.05-1.41,1.72-2.22,2.12-2.67.09-.28.22-.65.41-1.13-.07.07-.15.15-.22.22-1.13,1.38-2.32,2.76-3.56,4.12-.46.61-.89,1.19-1.23,1.71.85-.73,1.67-1.49,2.48-2.24Z"/>
        <path class="cls-1" d="m129.16,21.06c-.78,2.42,1.57-1.73,0,0h0Z"/>
        <path class="cls-1" d="m124.98,33.3l-.21.18c-.19.19-.38.38-.57.57.26-.25.51-.5.77-.75Z"/>
        <path class="cls-1" d="m105.71,44.3c1.26-.9,2.53-1.81,3.72-2.77-1.27.93-2.54,1.87-3.76,2.77-1.23.89-2.4,1.75-3.43,2.58.33-.21.72-.34,1.05-.55.56-.59,1.45-1.38,2.43-2.03Z"/>
        <path class="cls-1" d="m133.43,24.19c-2.88,3.22-5.76,6.34-8.66,9.29-6.35,5.45-12.74,10.38-18.42,14.98-2.47,2.08-6.17,4.5-9.9,6.89-1.87,1.18-3.75,2.37-5.48,3.51-1.75,1.12-3.32,2.26-4.61,3.31.65-.25,1.25-.54,1.83-.83-.78.56-1.53,1.08-2.21,1.59-4.74,2.51-9.61,4.68-14.55,6.74-4.98,1.96-10.04,3.82-15.33,5.33-1.56.49-2.66,1.06-4.24,1.49-1.59.46-3.16.88-4.73,1.27,0,.02.02.04.07.05-6.5,1.71-12.96,3.15-19.83,4.43-1.61.28-3.24.5-4.87.66-1.63.18-3.26.33-4.88.47-1.22.11-1.26-.28-2.08-.3-3.29-.25-5.74-.47-9.4-.54,0,0,0-.2-.01-.29-.56.05-1.06.06-1.47.05,1.72-1.14,6.08-1.72,1.4-2.29h0c.25-.05.49-.09.71-.12.03,0,.05,0,.08,0h0c1.08-.21,1.74-.45,2.37-.8l-2.1.1c.13-.14.21-.28.13-.42.06-.03.12-.06.18-.09.31-.02.57-.03.57-.03.1-.08.17-.16.22-.24,1.8-.5,4.65-.9,4.07-1.28-.44-.17-1.75.09-3.25.29-.09-.03-.2-.06-.31-.08,1.97-.2-.03-.68,1.14-.84,1.58-.07,3.14-.31,4.71-.41,6.39-.51,11.76-1.29,17.91-2.63.27-.06.54-.12.81-.18,1.49-.34,2.94-.64,4.38-.93,1.44-.32,2.87-.61,4.34-.88-.17.11-.35.21-.54.31,2.36-.45,4.71-1.01,7-1.75,5.62-1.84,11.1-3.99,16.95-6.21,6.13-2.32,11.89-4.94,17.72-8.15l-3.56,2.01c-1.2.65-2.45,1.25-3.71,1.84-1.15.5-2.29.99-3.42,1.45,1.18-.43,2.31-.92,3.42-1.45,1.11-.48,2.22-.95,3.32-1.43,1.09-.51,2.15-1.03,3.18-1.56,2.06-1.03,3.88-2.24,5.32-3.47.39-.11.44-.02.79-.2,2.4-1.3,4.86-2.5,6.68-4.03-.05-.08.96-.67.53-.64.99-.61,2.05-1.3,3.11-1.99,1.06-.68,2.11-1.38,3.04-2.1.81-.6,1.56-1.29,2.28-2.04,6.62-5.03,12.9-10.34,19.06-16.61,1.58-1.54,3.39-3.3,4.99-4.85-2.1,2.52-4.4,5.05-6.81,7.47-2.55,2.12-5.03,4.11-6.82,6.11-.44.45-.87.89-1.3,1.33,2.85-2.41,5.58-4.89,8.12-7.44,1.5-1.25,3.04-2.56,4.49-3.91l-.07.1c-1.04,1.15-2.13,2.3-3.23,3.43-2.26,1.91-4.45,3.72-6.17,5.5-.21.22-.42.45-.61.68-.44.44-.87.89-1.3,1.33,1.76-1.49,3.45-3.04,5.1-4.58,1.02-.97,2.02-1.94,2.99-2.93.66-.57,1.33-1.15,2-1.72-.05.08-.11.17-.15.24-.5.6-1.35,2.89-.29,2.34,2.22-2,4.76-4.56,6.69-6.65.98-1.04,1.79-1.97,2.39-2.62.29-.33.53-.59.69-.77.16-.18.26-.27.27-.26.28,0-1.25,1.95-2.87,3.83-1.61,1.89-3.31,3.69-3.14,3.6.45-.36.89-.74,1.33-1.11-.33.44-.66.87-.97,1.28-.78.88-2,1.87-2.45,2.54-1.63,2.29-4.14,4.18-6.34,6.46-1.35,1.46-2.98,3.22-4.66,4.95.12.16-.9.78-.47.71-1.79,1.34-3.93,2.8-4.39,3.83l-.13.1c-.13.09-.3.24-.47.41-1.58,1-2.83,1.99-4.04,2.95-1.21.98-2.35,1.99-3.71,3.02-.98.64-1.96,1.32-3.03,1.91.7-.39,1.77-.94,2.4-1.44.21-.16.42-.32.63-.48,1.27-.83,2.47-1.71,3.63-2.59,1.18-.87,2.31-1.76,3.44-2.66.16-.18.42-.47.68-.72l.53-.33c.02-.06.04-.12.07-.18,2.1-1.8,4.56-3.69,6.24-5.33,3.3-2.92,7.04-5.74,10.4-8.71-1.54,1.62-3.1,3.19-4.66,4.71,1.99-1.85,3.81-3.66,5.51-5.47.28-.26.56-.51.84-.76l1.73-1.63c-.56.48-1.12.96-1.68,1.43,1-1.09,1.98-2.18,2.92-3.27,5.36-5.86,10.6-12.09,15.61-18.32,0,.2-.02.41-.05.64-2.33,3.09-4.81,6.03-6.52,8.75,1.49-1.67,2.35-2.97,3.72-4.64.04.04.12.07.03.23.79-1.14,1.73-2.45,2.67-3.7-.11.55-.26,1.15-.42,1.74-.34.75-1.1,1.67-1.78,2.65-3.17,4.08-6.49,7.65-9.89,11.45-3.22,3.2-6.54,6.27-9.91,9.2,3.17-3.1,5.92-6.09,8.45-9.11ZM14.63,79.91c.41-.07.83-.15,1.25-.24l-.2-.05c-.39.04-.76.15-1.05.29Zm9.36-.84c-1.38.07-2.96.27-4.64.51-1.68.2-3.45.49-5.19.68-.02.03-.03.05-.03.08,2.95-.12,6.54-.73,9.86-1.26Zm11.25.33l-.07-.02v.04s.07-.02.07-.02Zm45.81-17.55c-1.36.87-2.96,1.7-4.67,2.54-1.72.82-3.57,1.59-5.39,2.44-1.11.46-2.11,1.21-3.62,1.77-1.85.79-2.92,1.38-4.43,1.97l1.21-.2c-2.71.79-4.05,1.9-6.82,2.51.03.09-.3.4-.69.51-1.9.7-3.91,1.03-5.42,1.64-1.92.64-3.89,1.1-5.42,1.67-.39.09-1.11.57-1.88.86l-2.89.71s.09.03.14.05c.79-.16,1.59-.34,2.37-.58,1.17-.37,2.43-.77,3.69-1.17,1.26-.38,2.52-.78,3.68-1.15,5.83-1.73,11.11-3.84,16.28-6.13,1.1-.51,2.17-1.11,3.27-1.61,1.61-.86,3.45-1.67,5.13-2.47,1.67-.82,3.17-1.66,4.13-2.45.33-.25,1.06-.57,1.35-.91Zm2.19-5.73c-3.53,2.16-7.64,4.22-11.3,5.58-2.86,1.27-11.19,4.79-9.34,5.37,1.52-1.61,7.62-3.85,12.83-6.1,2.6-1.14,5-2.22,6.5-3.13,1.52-.89,2.17-1.52,1.31-1.73Zm26.96-18.09c-1.24,1.05-2.43,2.09-3.97,3.11,1.35-1.01,2.65-2.07,3.97-3.11Zm-11.79,12.43c4.07-3.21,8.64-6.28,12.59-9.56,3.03-2.5,6.77-4.74,9.07-7.5l-.19-.23-.24.32c-1.1.82-2.07,1.38-3.02,2.02l.14-.14-.27.22c-.64.43-1.28.9-1.96,1.51-.3.3-.63.58-.95.87-3.83,3.05-7.92,6-11.36,8.89-2.19,1.69-3.95,3.35-6.22,4.97.68-.39,1.76-.9,2.4-1.38Z"/>
        <path class="cls-1" d="m128,29.08c1.18-1.25,2.35-2.51,3.52-3.79.87-1.02,1.73-2.05,2.55-3.1,4.06-4.87,9.05-10.31,13-15.83-.11-.33-.32-.53-.71-.52-4.71,5.59-9.15,11.45-14.45,16.52l-.1.14c-1.79,2.64-5.63,6.01-8.29,8.93-2.6,3.01-5.57,5.61-8.46,8.36,4.6-3.41,8.67-7.02,12.94-10.7Z"/>
        <path class="cls-1" d="m92.34,59.47c1.37-.81,2.74-1.62,4.13-2.44,3.77-2.41,7.04-4.67,10.24-7.18-1.23.83-2.48,1.64-3.75,2.42-1.27.79-2.54,1.58-3.85,2.32-2.54,1.62-4.56,3.25-6.77,4.87Z"/>
        <path class="cls-1" d="m109.29,47.81c-.86.71-1.72,1.38-2.58,2.04,3.66-2.44,7.19-5.01,10.6-7.72,5.5-4.58,10.76-9.51,15.49-14.84.55-.6,1.09-1.19,1.62-1.78-4.72,4.63-9.69,8.99-14.64,12.98-4.94,4-9.78,7.7-14.21,11.25-.16.13-.34.28-.51.41,4.5-2.92,8.79-6.05,12.91-9.37-2.85,2.39-5.73,4.75-8.69,7.02Z"/>
        <path class="cls-1" d="m126.85,30.28c.29-.26.57-.51.85-.76.3-.32.6-.64.9-.96l-.61.52c-.38.4-.77.8-1.15,1.2Z"/>
        <path class="cls-1" d="m116.63,35.53l-.12.08c-.95.79-1.91,1.61-2.91,2.39-1.3,1.19-2.7,2.37-4.17,3.54,2.73-2.02,5.34-4.13,7.2-6Z"/>
        <path class="cls-1" d="m106.55,39.96c-.32.22-.96.65-1.28.86l-.48.54c.3-.2.61-.4.92-.59l.85-.81Z"/>
        <path class="cls-1" d="m87.72,53.06c5.95-3.52,11.31-7.15,16.42-10.99.21-.23.43-.47.65-.7-3.6,2.31-7.12,4.66-10.28,7.07-.62.47-1.48,1.32-2.17,1.69-3.18,1.86-6.14,3.75-9.18,5.54,1.48-.79,2.93-1.67,4.43-2.53l.12-.07Z"/>
      </g>
      <g>
        <path class="cls-1" d="m86.08,24.51c-.12.08-.23.15-.23.15l.06.08c.06-.08.12-.15.17-.23Z"/>
        <path class="cls-1" d="m85.67,23.38l-.07.05s.04.04.06.06c0-.03,0-.07.02-.1Z"/>
        <path class="cls-1" d="m85.91,24.74c.21.29.5.53.58.9-.13.08-.38.24-.5.32-.02.24.21.33.32.49-.12.08-.25.16-.2.24.06.27.29.32.56.22-.07-1.26,1.11-2.49-.77-2.18Z"/>
        <path class="cls-1" d="m86.5,23.43l-.67.43c.05.23.08.48.27.63.26-.36.37-.66.41-1.06Z"/>
        <path class="cls-1" d="m145.53,8c0-.06.02-.09.15,0-.05,0-.1,0-.15,0,0,.06,0,.14-.07.17.54-.07,1.16-.13,1.77-.11l.25-.29c-1.5-.08-3-.17-4.24.29.86.04,1.46-.09,2.29-.06Z"/>
        <path class="cls-1" d="m147.64,7.18h.15c-.13-.09-.15-.06-.15,0Z"/>
        <path class="cls-1" d="m121.29,10.59c-.88.23-1.59.75-2.31,1.23,1.6-.64,3.3-1.06,4.53-1.65-.74.15-1.47.3-2.22.43Z"/>
        <path class="cls-1" d="m115.43,13.97c1.12-.08,1.93-.54,2.71-1.06-.84.29-1.68.58-2.51.86-.07.07-.13.13-.2.2Z"/>
        <path class="cls-1" d="m116.47,13.09c.98-.25,1.75-.76,2.51-1.27-.91.34-1.78.76-2.51,1.27Z"/>
        <path class="cls-1" d="m136.12,1.47c.72-.31,1.17-.43,1.42-.46.11-.14.26-.31.46-.52h-.13c-.77.18-1.53.35-2.3.53-.31.13-.61.27-.86.45.47,0,.94.02,1.41,0Z"/>
        <path class="cls-1" d="m137.54,1c-.94,1.18.98-.14,0,0h0Z"/>
        <path class="cls-1" d="m133.15,7.29h-.11s-.3.09-.3.09c.14-.03.27-.06.41-.09Z"/>
        <path class="cls-1" d="m124.25,5.41c.61-.13,1.22-.28,1.82-.45-1.24.26-2.5.54-3.49,1.01.15-.03.33.04.48.02.28-.25.72-.51,1.19-.58Z"/>
        <path class="cls-1" d="m137.93,6.23c-1.68.26-3.32.63-4.88,1.07-3.21.21-6.29.8-8.9,2.01-2.27,1.15-6.48,1.74-8.4,3.89.26-.02.5-.06.73-.11-.31.21-.59.44-.84.68-3.69,1.29-7.25,2.65-10.94,4.09-.55.2-.84.66-1.39.88-.54.24-1.08.47-1.6.73,0,.02.02.04.05.05-2.16,1.07-4.22,2.27-6.27,3.7-.98.63-2.05,1.1-3.06,1.68-.38.22-.58-.13-.88-.06-1.25.17-2.22.29-3.45.83,0,0-.1-.17-.16-.25-.16.14-.31.23-.46.28-.05-1.26,1.16-2.47-.74-2.19h0c.06-.08.12-.15.18-.23l.03-.02h0c.26-.37.38-.66.42-1.06l-.68.42c-.03-.14-.07-.28-.17-.38l.02-.1c.1-.06.19-.12.19-.12,0-.08-.02-.16-.04-.24.37-.74,1.23-1.49.84-1.73-.25-.09-.61.32-1.05.74-.05-.01-.1-.02-.15-.02.61-.49-.36-.58-.01-.91.54-.32,1.03-.72,1.57-1.04,2.21-1.28,4.05-2.38,6.18-3.77l.28-.18c1.05-.63,2.08-1.17,3.21-1.57-.04.09-.09.18-.14.27.91-.33,1.79-.71,2.62-1.21,2.02-1.28,4.12-2.47,6.49-3.39,2.5-.92,4.9-1.85,7.46-2.82-1.03.46-2.04.97-3.11,1.34-.49.12-.98.26-1.45.43.5-.13.98-.27,1.45-.43,1.9-.51,3.87-.87,5.14-2.12.18.04.2.13.36.1,1.1-.23,2.21-.36,3.08-.94-.02-.1.46-.18.26-.35.93-.26,2.04-.45,2.97-.81.4-.14.79-.37,1.17-.67,3.37-1.02,6.77-1.88,10.56-2.54.94-.13,2.03-.17,2.99-.18-1.41.34-2.84.66-4.29.98-1.42,0-2.78.11-3.85.71-.26.11-.5.22-.75.33,1.54-.35,3.07-.7,4.6-1.05.84,0,1.7,0,2.54,0l-.05.02-1.98.43c-1.26,0-2.47.08-3.47.51-.12.05-.25.11-.36.18-.25.11-.5.22-.74.33.95-.22,1.89-.43,2.83-.65l1.75-.38c.37,0,.74,0,1.12.01l-.11.08c-.33.11-1.17,1.3-.68,1.57,1.23-.07,2.7-.23,3.88-.35,1.17-.12,2.04-.2,2.04-.15.15.37-4.06.91-3.89,1.04.24.04.47.07.71.09-.22.09-.44.17-.63.27-.47.11-1.11.03-1.42.24-1.08.63-2.35.5-3.57.99-.76.35-1.66.83-2.55,1.31.02.19-.45.15-.28.33-.87.09-1.87.22-2.17.83l-.06.02c-.06,0-.14.05-.23.11-1.45.09-2.36.79-3.57,1.39-.43.13-.87.23-1.33.31.3-.05.77-.03,1.05-.18l.28-.13c1.12-.33,2.17-.76,3.23-1.13.08-.07.21-.18.34-.26h.24c.01-.05.03-.09.05-.13,1.02-.42,2.2-.65,3.08-1.03,1.68-.51,3.53-.46,5.29-.48-.87.2-1.71.43-2.54.67,1.04-.24,2.02-.46,2.99-.68.15,0,.3,0,.45-.01l.93-.03c-.29-.04-.58-.06-.87-.08l1.71-.4c3.11-.51,6.39-.65,9.54-.25-.07.11-.15.23-.24.34-1.53-.06-3.06-.14-4.32.34.88.03,1.49-.11,2.34-.09,0,.06,0,.14-.07.17.55-.08,1.19-.15,1.8-.13-.22.24-.45.47-.69.71-.32.17-.78.15-1.25.22-2,.06-3.88-.04-5.85.2-1.75-.03-3.49-.01-5.2.1,1.67-.37,3.21-.72,4.78-1.07Zm-48.22,15.95c.11-.11.22-.24.34-.36l-.1-.02c-.13.07-.2.23-.24.39Zm3.13-1.64c-1,.33-2.08,1.21-3.14,2,0,.03.02.05.03.07,1-.48,2.05-1.36,3.11-2.07Zm4.57-.06l-.04-.02.02.04v-.02Zm16.02-9.32c-1.05.79-2.5,1.2-3.89,1.86-.43.14-.75.63-1.32.84-.68.34-1.04.67-1.58.96l.49.04c-1.03.24-1.38,1.02-2.43,1.2.04.09-.03.33-.17.38-.66.35-1.42.46-1.9.86-.65.37-1.34.65-1.8,1.08-.14.06-.29.45-.52.66-.32.18-.64.35-.95.52l.07.05c.27-.12.54-.25.78-.43.73-.54,1.6-1.14,2.39-1.56,1.98-1.04,3.8-2.12,5.66-3.17.39-.24.76-.57,1.16-.79,1.17-.79,2.79-1.17,3.49-2.06.12-.14.41-.22.51-.45Zm.61-4.54c-1.53.81-3.25,1.49-4.78,1.88-1.23.35-4.47,2.09-3.47,3,.19-.63.89-1.16,1.82-1.62.94-.43,2.09-.83,3.18-1.15,2.17-.65,4.04-1.15,3.24-2.1Zm12.84-4.18c-.66.23-1.29.46-2.05.55l2.05-.55Zm-6.1,4.95c1.87-1.03,4.03-1.49,6.01-2.11,1.54-.47,3.3-.16,4.67-.94l-.02-.29-.15.11c-.56-.01-1.02-.14-1.49-.18l.08-.03-.14.03c-.32-.02-.64,0-1,.11l-.5.19c-1.96.37-3.97.8-5.63,1.71-1.04.48-1.88,1.1-2.89,1.61.3-.07.78-.05,1.07-.2Z"/>
        <path class="cls-1" d="m135.06,6.06c.67-.14,1.34-.28,2.02-.39.52-.13,1.04-.27,1.58-.4,2.52-.53,5.46-.24,8.18-.26.1-.28.14-.57.06-.88-2.95-.55-5.94-.14-8.9-.29l-.07.03c-1.26.59-3.32.46-4.86,1.04-1.53.67-3.07,1-4.57,1.64,2.23-.23,4.35-.59,6.57-.5Z"/>
        <path class="cls-1" d="m118.14,12.91c.55-.18,1.11-.35,1.68-.53,1.55-.59,2.95-1.07,4.37-1.69-1.08.23-2.16.46-3.26.65-1.07.33-1.9,1.01-2.78,1.58Z"/>
        <path class="cls-1" d="m125.35,10.22c-.4.16-.78.31-1.16.47,1.6-.31,3.2-.63,4.79-.94,2.61-.66,5.27-1.17,7.96-1.74.31-.06.61-.1.91-.14-5.02-.08-10.11.29-14.1,2.18-.08.04-.15.08-.23.11,1.97-.39,3.93-.78,5.89-1.13-1.37.34-2.73.72-4.06,1.18Z"/>
        <polygon class="cls-1" points="134.42 6.21 134.86 6.2 135.37 6.08 135.06 6.06 134.42 6.21"/>
        <path class="cls-1" d="m129.78,3.98h-.06c-.5.09-1,.19-1.51.29-.69.26-1.41.48-2.14.69,1.34-.29,2.68-.54,3.71-.98Z"/>
        <path class="cls-1" d="m125.09,2.13c-.16.02-.48.06-.65.09l-.27.22.46-.05.46-.26Z"/>
        <path class="cls-1" d="m115.99,5.38c2.69-.99,5.25-1.88,7.83-2.67.11-.09.23-.18.35-.28-1.79.18-3.53.65-5.04,1.46-.3.16-.71.55-1.03.61-1.48.39-2.82,1.02-4.14,1.65.64-.25,1.3-.5,1.97-.76l.06-.02Z"/>
      </g>
      <g>
        <path class="cls-1" d="m136.69,71.63c-.08.13-.15.26-.15.26l.09.04c.02-.11.04-.21.06-.3Z"/>
        <path class="cls-1" d="m135.81,70.8l-.05.08s.05.02.08.02c-.01-.03-.02-.07-.03-.1Z"/>
        <path class="cls-1" d="m136.63,71.93c.32.16.69.23.93.54-.08.14-.25.43-.33.58.09.24.34.2.51.3-.08.14-.17.29-.08.34.17.22.4.16.62-.1-.58-1.18-.04-2.94-1.64-1.65Z"/>
        <path class="cls-1" d="m136.59,70.41l-.42.75c.15.19.28.41.52.44.08-.47.05-.8-.1-1.19Z"/>
        <path class="cls-1" d="m150.02,6.22c-.06,0-.09,0-.02-.16,0,.06.01.11.02.16.06,0,.14-.02.18.05-.15-.56-.33-1.21-.41-1.85-.11-.07-.22-.14-.33-.21.21,1.58.34,3.15.93,4.43-.05-.92-.28-1.54-.36-2.43Z"/>
        <path class="cls-1" d="m148.85,4.16l-.02-.16c-.07.15-.04.16.02.16Z"/>
        <path class="cls-1" d="m150.37,32.57c-.07.99.13,1.91.3,2.84.03-1.91.2-3.83,0-5.3-.09.82-.16,1.64-.3,2.46Z"/>
        <path class="cls-1" d="m151.08,40.02c.46-1.18.4-2.26.26-3.28-.1,1-.19,2-.34,2.98.03.1.05.2.08.3Z"/>
        <path class="cls-1" d="m150.77,38.54c.22-1.12.07-2.13-.1-3.13-.04,1.08-.04,2.14.1,3.13Z"/>
        <path class="cls-1" d="m144.07,16.07c-.28-.69-.4-1.11-.44-1.35-.14-.1-.31-.24-.52-.43v.12c.2.71.34,1.43.49,2.16.12.3.25.59.41.83.03-.44.05-.89.06-1.33Z"/>
        <path class="cls-1" d="m143.63,14.72c1.18.89-.14-.93,0,0h0Z"/>
        <path class="cls-1" d="m149.71,19.38v.11s.05.33.05.33c-.02-.15-.04-.29-.05-.44Z"/>
        <path class="cls-1" d="m146.3,28.06c.03-.63.02-1.25,0-1.87-.03,1.27-.05,2.55.08,3.64.02-.16.14-.3.16-.46-.16-.34-.28-.83-.23-1.3Z"/>
        <path class="cls-1" d="m148.86,14.34c.27,1.74.56,3.47.85,5.15-.08,3.4-.12,6.67.32,9.72.49,2.71-.46,7.2.5,10.12.1-.27.18-.54.23-.8.06.41.12.8.22,1.18-.59,4.4-1.54,8.68-2.99,12.99-.22.64-.11,1.21-.33,1.85-.22.65-.43,1.29-.64,1.92.02.01.04,0,.07,0-.88,2.63-1.74,5.23-2.67,8.02-.48,1.28-1.16,2.46-1.77,3.67-.23.45-.58.28-.82.53-1.05.98-1.87,1.68-2.77,2.9,0,0-.17-.1-.26-.14-.08.22-.19.4-.3.53-.6-1.17-.08-2.93-1.66-1.63h0c.02-.11.04-.21.06-.3l.02-.03h-.01c.07-.47.03-.8-.12-1.19l-.41.75c-.09-.11-.2-.21-.33-.25l-.03-.1c.06-.11.11-.2.11-.2-.05-.07-.1-.14-.15-.19,0-.85.34-1.98-.13-1.97-.27.05-.35.61-.54,1.21-.05.01-.1.04-.14.06.3-.75-.6-.33-.46-.79.3-.56.51-1.17.8-1.73,1.18-2.3,2.03-4.32,2.77-6.76l.1-.32c.37-1.18.79-2.25,1.3-3.34.03.1.06.19.09.29.41-.88.78-1.78.97-2.74.44-2.37.81-4.72,1.4-7.17.34-1.27.6-2.54.81-3.82.23-1.28.37-2.58.49-3.91-.03,1.1-.04,2.22-.26,3.32-.13.48-.26.97-.36,1.44.15-.48.27-.96.36-1.44.49-1.87,1.03-3.8.39-5.43.11-.14.21-.12.23-.28.22-1.07.48-2.14.24-3.12-.1-.02-.02-.48-.24-.35.06-.93.19-2.01.12-2.96-.01-.41-.14-.83-.33-1.25-.14-3.34-.45-6.62-.87-10.15-.08-.87-.08-1.88-.08-2.76.32,1.3.6,2.65.79,4.02-.1,1.33-.19,2.59.26,3.67.08.25.14.5.21.75-.11-1.5-.25-2.98-.47-4.42.07-.78.16-1.59.16-2.38l.02.05c.13.62.23,1.25.32,1.88-.09,1.19-.15,2.32.14,3.32.04.12.08.25.13.37.08.25.16.5.22.75-.07-.93-.17-1.85-.26-2.76l-.23-1.68c.03-.35.06-.7.09-1.05l.07.11c.09.31,1.21,1.2,1.52.75.02-1.2-.1-2.65-.21-3.79-.12-1.14-.23-1.98-.19-1.98.41-.17.96,3.95,1.04,3.8.05-.23.08-.46.12-.7.08.22.16.44.25.64.09.47,0,1.1.18,1.42.55,1.12.34,2.38.65,3.67.26.8.58,1.78.9,2.78.19.01.06.49.27.34-.06.91-.16,1.95.36,2.39v.07c0,.06.02.16.06.26-.24,1.5.15,2.61.34,4.04,0,.48-.05.97-.13,1.46.05-.32.23-.79.17-1.13l-.04-.33c.03-1.25-.06-2.44-.16-3.63-.05-.1-.12-.26-.17-.41l.05-.25s-.07-.05-.11-.08c-.15-1.14-.17-2.4-.38-3.36-.21-1.8.04-3.68.14-5.5.15.9.29,1.8.44,2.69-.12-1.11-.27-2.15-.42-3.16,0-.16,0-.31,0-.46v-.96c-.04.3-.07.6-.1.89-.11-.6-.22-1.19-.35-1.77-.47-3.21-.86-6.47-1-9.7.12.05.25.11.37.18.2,1.55.29,3.11.88,4.36-.05-.91-.25-1.52-.34-2.39.06,0,.14-.02.18.05-.15-.55-.3-1.19-.39-1.82.27.18.54.39.8.59.22.31.26.79.39,1.27.3,2.08.35,4.06.61,6.13,0,1.85-.06,3.69-.11,5.49-.21-1.8-.48-3.45-.85-5.04Zm-10.01,53.13c.04-.17.08-.35.11-.52l-.1.04c-.07.14-.06.32-.01.49Zm1.79-3.41c-.63.95-1.09,2.38-1.62,3.73.02.02.04.04.06.05.63-1.03,1.09-2.47,1.56-3.77Zm3.72-3.32h-.04s.04.03.04.03v-.03Zm3.25-20.09c.2,1.38-.22,2.97-.44,4.61-.13.47.11,1.05-.07,1.68-.14.82-.07,1.35-.18,2.01l.33-.42c-.44,1.08-.07,1.89-.62,2.93.09.03.23.25.17.41-.17.82-.64,1.54-.67,2.23-.2.81-.48,1.6-.53,2.29-.06.16.09.57.06.92-.11.4-.24.79-.37,1.17l.09-.02c.13-.31.25-.62.31-.96.19-1.01.41-2.17.66-3.15.66-2.43,1.01-4.76,1.26-7.1.04-.5,0-1.03.03-1.54.03-1.53.54-3.27.11-4.38-.06-.18,0-.5-.15-.7Zm-3.76-2.66c.03.85-.01,1.74-.11,2.6-.12.86-.31,1.69-.54,2.44-.3,1.22-.76,4.87.54,4.61-.81-1.08-.06-3.58.45-5.81.54-2.22.87-4.15-.33-3.84Zm.13-13.09c.11.66.17,1.29.09,2.03-.04-.68-.04-1.35-.09-2.03Zm3.17,7.11c-.37-2.15-.21-4.37-.4-6.46-.16-1.6.46-3.31-.17-4.76h-.29s.09.15.09.15c-.09.55-.27.98-.37,1.44l-.02-.08v.14c-.05.3-.1.62-.05.99l.1.52c.01.98.02,1.98.04,2.97.04.99.12,1.96.3,2.89.15,1.14.5,2.15.61,3.3.05-.31.22-.78.18-1.11Z"/>
        <path class="cls-1" d="m148.63,17.3c-.12-.69-.22-1.39-.32-2.09-.12-.54-.26-1.08-.41-1.61-.57-2.54-.54-5.52-1.03-8.23-.29-.05-.59-.04-.88.09-.05,2.95.63,5.86.5,8.82l.03.07c.61,1.26.4,3.31.83,4.91.53,1.61.65,3.21,1.01,4.85.19-2.31.06-4.52.28-6.8Z"/>
        <path class="cls-1" d="m151.34,36.74c.06-.65.14-1.31.17-1.97.08-1.86.02-3.51-.13-5.2-.12,1.21-.22,2.44-.43,3.65-.09,1.24.24,2.36.39,3.52Z"/>
        <path class="cls-1" d="m151.23,28.19c.06.46.11.92.14,1.37.14-1.8.21-3.59.2-5.38-.19-2.95-.41-5.88-.94-8.78-.05-.33-.09-.66-.14-.98-.06,5.4-.5,10.7.13,15.42.01.09.02.18.04.28.22-2.19.28-4.36.28-6.53.09,1.52.19,3.05.28,4.61Z"/>
        <polygon class="cls-1" points="148.73 17.98 148.75 17.51 148.66 16.98 148.63 17.3 148.73 17.98"/>
        <path class="cls-1" d="m146.02,22.39v.06c.02.5.02,1.01.03,1.52.12.71.23,1.46.25,2.22.02-1.37,0-2.73-.28-3.8Z"/>
        <path class="cls-1" d="m143.32,26.49c-.02.15-.05.46-.06.61l.15.3.06-.43-.15-.48Z"/>
        <path class="cls-1" d="m143.57,35.74c.16-2.78.11-5.39.02-7.95-.06-.13-.12-.26-.18-.39-.25,1.68-.34,3.37-.06,5,.05.32.26.83.22,1.13-.16,1.46-.11,2.9-.12,4.33.07-.67.1-1.36.13-2.05v-.06Z"/>
      </g>
    </g>
  </g>
</svg>