<svg width="2674" height="495" viewBox="0 0 2674 495" fill="none" xmlns="http://www.w3.org/2000/svg">
<g clip-path="url(#clip0_9_9)">
<path id="michu-tech-logo-upper" fill="#3C3E3C" d="M49 121V62L237 248.5L347.5 136V361.5L383 398.5V104H124.5L82.5 62H423.5V436.5H363.5L310 382.5V228.5L233.5 306L49 121Z"/>
<path id="michu-tech-logo-lower" fill="#E28521" d="M49 436.5V162.5L247 361H206.5L85 240V397.5H285L323 436.5H49Z"/>
</g>
<path id="michu-tech-logo-text" fill="#3C3E3C" d="M508.1 380C498.3 380 493.4 375.1 493.4 365.3V157.4C493.4 147.6 498.3 142.7 508.1 142.7C514.517 142.7 519.883 145.85 524.2 152.15L606.8 276.4L600.5 277.45L683.8 152.15C687.767 145.85 693.717 142.7 701.65 142.7C709.583 142.7 713.55 147.6 713.55 157.4V365.3C713.55 375.1 708.65 380 698.85 380C689.05 380 684.15 375.1 684.15 365.3V186.8L693.25 189.95L619.75 298.1C615.433 304.4 609.483 307.55 601.9 307.55C596.65 307.55 591.867 304.4 587.55 298.1L514.05 189.95L522.8 192.4V365.3C522.8 375.1 517.9 380 508.1 380ZM770.52 380C765.503 380 761.77 378.833 759.32 376.5C756.987 374.05 755.82 370.317 755.82 365.3V157.75C755.82 152.617 756.987 148.883 759.32 146.55C761.77 144.217 765.503 143.05 770.52 143.05C775.653 143.05 779.387 144.217 781.72 146.55C784.053 148.883 785.22 152.617 785.22 157.75V365.3C785.22 370.317 784.053 374.05 781.72 376.5C779.387 378.833 775.653 380 770.52 380ZM897.517 380C870.801 380 851.026 373.642 838.192 360.925C825.476 348.092 819.117 328.317 819.117 301.6V221.1C819.117 194.15 825.476 174.317 838.192 161.6C850.909 148.767 870.567 142.467 897.167 142.7H939.517C961.451 142.7 978.192 147.25 989.742 156.35C1001.29 165.333 1008 179.567 1009.87 199.05C1010.57 203.95 1009.63 207.683 1007.07 210.25C1004.5 212.817 1000.77 214.1 995.867 214.1C987.001 214.1 981.867 209.2 980.467 199.4C979.301 188.667 975.567 181.433 969.267 177.7C963.084 173.967 953.167 172.1 939.517 172.1H897.167C884.801 171.983 875.059 173.383 867.942 176.3C860.942 179.217 855.926 184.292 852.892 191.525C849.976 198.642 848.517 208.5 848.517 221.1V301.6C848.517 314.083 849.976 323.883 852.892 331C855.926 338.117 861.001 343.192 868.117 346.225C875.234 349.142 885.034 350.6 897.517 350.6H939.517C953.167 350.6 963.084 348.733 969.267 345C975.567 341.15 979.301 333.917 980.467 323.3C981.867 313.5 987.001 308.6 995.867 308.6C1000.77 308.6 1004.5 309.883 1007.07 312.45C1009.63 315.017 1010.57 318.75 1009.87 323.65C1008 343.25 1001.29 357.542 989.742 366.525C978.192 375.508 961.451 380 939.517 380H897.517ZM1055.42 380C1051.57 380 1048.13 378.542 1045.09 375.625C1042.18 372.592 1040.72 369.15 1040.72 365.3V157.4C1040.72 153.55 1042.18 150.167 1045.09 147.25C1048.13 144.217 1051.57 142.7 1055.42 142.7C1059.27 142.7 1062.65 144.217 1065.57 147.25C1068.6 150.167 1070.12 153.55 1070.12 157.4V245.25H1212.92V157.4C1212.92 153.55 1214.38 150.167 1217.29 147.25C1220.21 144.217 1223.65 142.7 1227.62 142.7C1231.47 142.7 1234.85 144.217 1237.77 147.25C1240.8 150.167 1242.32 153.55 1242.32 157.4V365.3C1242.32 369.15 1240.8 372.592 1237.77 375.625C1234.85 378.542 1231.47 380 1227.62 380C1223.65 380 1220.21 378.542 1217.29 375.625C1214.38 372.592 1212.92 369.15 1212.92 365.3V274.65H1070.12V365.3C1070.12 369.15 1068.6 372.592 1065.57 375.625C1062.65 378.542 1059.27 380 1055.42 380ZM1361.33 380C1334.61 380 1314.84 373.642 1302.01 360.925C1289.29 348.092 1282.93 328.317 1282.93 301.6V157.4C1282.93 152.5 1284.16 148.825 1286.61 146.375C1289.06 143.925 1292.73 142.7 1297.63 142.7C1302.53 142.7 1306.21 143.925 1308.66 146.375C1311.11 148.825 1312.33 152.5 1312.33 157.4V301.6C1312.33 314.083 1313.79 323.883 1316.71 331C1319.74 338.117 1324.81 343.192 1331.93 346.225C1339.05 349.142 1348.85 350.6 1361.33 350.6H1403.33C1415.81 350.6 1425.61 349.142 1432.73 346.225C1439.85 343.192 1444.86 338.117 1447.78 331C1450.81 323.883 1452.33 314.083 1452.33 301.6V157.4C1452.33 152.5 1453.56 148.825 1456.01 146.375C1458.46 143.925 1462.13 142.7 1467.03 142.7C1471.93 142.7 1475.61 143.925 1478.06 146.375C1480.51 148.825 1481.73 152.5 1481.73 157.4V301.6C1481.73 328.317 1475.37 348.092 1462.66 360.925C1449.94 373.642 1430.16 380 1403.33 380H1361.33ZM1606.96 297.75C1603.69 297.75 1600.83 296.525 1598.38 294.075C1595.93 291.625 1594.71 288.767 1594.71 285.5C1594.71 282.117 1595.93 279.258 1598.38 276.925C1600.83 274.475 1603.69 273.25 1606.96 273.25H1703.56C1706.94 273.25 1709.8 274.475 1712.13 276.925C1714.58 279.258 1715.81 282.117 1715.81 285.5C1715.81 288.767 1714.58 291.625 1712.13 294.075C1709.8 296.525 1706.94 297.75 1703.56 297.75H1606.96ZM1901.6 380C1896.7 380 1893.03 378.775 1890.58 376.325C1888.13 373.875 1886.9 370.2 1886.9 365.3V172.45H1819C1814.1 172.45 1810.43 171.225 1807.98 168.775C1805.53 166.325 1804.3 162.65 1804.3 157.75C1804.3 152.85 1805.53 149.175 1807.98 146.725C1810.43 144.275 1814.1 143.05 1819 143.05H1984.2C1989.1 143.05 1992.78 144.275 1995.23 146.725C1997.68 149.175 1998.9 152.85 1998.9 157.75C1998.9 162.65 1997.68 166.325 1995.23 168.775C1992.78 171.225 1989.1 172.45 1984.2 172.45H1916.3V365.3C1916.3 369.967 1915.02 373.583 1912.45 376.15C1910 378.717 1906.39 380 1901.6 380ZM2029.74 380C2019.94 380 2015.04 375.1 2015.04 365.3V157.4C2015.04 147.6 2019.94 142.7 2029.74 142.7H2155.39C2165.19 142.7 2170.09 147.6 2170.09 157.4C2170.09 167.2 2165.19 172.1 2155.39 172.1H2044.44V245.6H2114.09C2123.89 245.6 2128.79 250.5 2128.79 260.3C2128.79 270.1 2123.89 275 2114.09 275H2044.44V350.6H2155.39C2165.19 350.6 2170.09 355.5 2170.09 365.3C2170.09 375.1 2165.19 380 2155.39 380H2029.74ZM2258.6 380C2231.88 380 2212.1 373.642 2199.27 360.925C2186.55 348.092 2180.2 328.317 2180.2 301.6V221.1C2180.2 194.15 2186.55 174.317 2199.27 161.6C2211.99 148.767 2231.65 142.467 2258.25 142.7H2300.6C2322.53 142.7 2339.27 147.25 2350.82 156.35C2362.37 165.333 2369.08 179.567 2370.95 199.05C2371.65 203.95 2370.71 207.683 2368.15 210.25C2365.58 212.817 2361.85 214.1 2356.95 214.1C2348.08 214.1 2342.95 209.2 2341.55 199.4C2340.38 188.667 2336.65 181.433 2330.35 177.7C2324.16 173.967 2314.25 172.1 2300.6 172.1H2258.25C2245.88 171.983 2236.14 173.383 2229.02 176.3C2222.02 179.217 2217 184.292 2213.97 191.525C2211.05 198.642 2209.6 208.5 2209.6 221.1V301.6C2209.6 314.083 2211.05 323.883 2213.97 331C2217 338.117 2222.08 343.192 2229.2 346.225C2236.31 349.142 2246.11 350.6 2258.6 350.6H2300.6C2314.25 350.6 2324.16 348.733 2330.35 345C2336.65 341.15 2340.38 333.917 2341.55 323.3C2342.95 313.5 2348.08 308.6 2356.95 308.6C2361.85 308.6 2365.58 309.883 2368.15 312.45C2370.71 315.017 2371.65 318.75 2370.95 323.65C2369.08 343.25 2362.37 357.542 2350.82 366.525C2339.27 375.508 2322.53 380 2300.6 380H2258.6ZM2416.5 380C2412.65 380 2409.2 378.542 2406.17 375.625C2403.25 372.592 2401.8 369.15 2401.8 365.3V157.4C2401.8 153.55 2403.25 150.167 2406.17 147.25C2409.2 144.217 2412.65 142.7 2416.5 142.7C2420.35 142.7 2423.73 144.217 2426.65 147.25C2429.68 150.167 2431.2 153.55 2431.2 157.4V245.25H2574V157.4C2574 153.55 2575.45 150.167 2578.37 147.25C2581.29 144.217 2584.73 142.7 2588.7 142.7C2592.55 142.7 2595.93 144.217 2598.85 147.25C2601.88 150.167 2603.4 153.55 2603.4 157.4V365.3C2603.4 369.15 2601.88 372.592 2598.85 375.625C2595.93 378.542 2592.55 380 2588.7 380C2584.73 380 2581.29 378.542 2578.37 375.625C2575.45 372.592 2574 369.15 2574 365.3V274.65H2431.2V365.3C2431.2 369.15 2429.68 372.592 2426.65 375.625C2423.73 378.542 2420.35 380 2416.5 380Z"/>
<defs>
<clipPath id="clip0_9_9">
<rect width="374" height="374" fill="transparent" transform="translate(49 62)"/>
</clipPath>
</defs>
</svg>
