<svg width="2825" height="50" viewBox="0 0 2825 50" fill="none" xmlns="http://www.w3.org/2000/svg">
<path d="M13 0L50 50H35.7303L0 0H13Z" fill="#E28420"/>
<path d="M413 0L450 50H435.73L400 0H413Z" fill="#E28420"/>
<path d="M213 0L250 50H235.73L200 0H213Z" fill="#E28420"/>
<path d="M613 0L650 50H635.73L600 0H613Z" fill="#E28420"/>
<path d="M888 0L925 50H910.73L875 0H888Z" fill="#E28420"/>
<path d="M1213 0L1250 50H1235.73L1200 0H1213Z" fill="#E28420"/>
<path d="M113 0L150 50H135.73L100 0H113Z" fill="#E28420"/>
<path d="M513 0L550 50H535.73L500 0H513Z" fill="#E28420"/>
<path d="M313 0L350 50H335.73L300 0H313Z" fill="#E28420"/>
<path d="M713 0L750 50H735.73L700 0H713Z" fill="#E28420"/>
<path d="M988 0L1025 50H1010.73L975 0H988Z" fill="#E28420"/>
<path d="M1313 0L1350 50H1335.73L1300 0H1313Z" fill="#E28420"/>
<path d="M63 0L100 50H85.7303L50 0H63Z" fill="#E28420"/>
<path d="M463 0L500 50H485.73L450 0H463Z" fill="#E28420"/>
<path d="M263 0L300 50H285.73L250 0H263Z" fill="#E28420"/>
<path d="M663 0L700 50H685.73L650 0H663Z" fill="#E28420"/>
<path d="M938 0L975 50H960.73L925 0H938Z" fill="#E28420"/>
<path d="M1263 0L1300 50H1285.73L1250 0H1263Z" fill="#E28420"/>
<path d="M163 0L200 50H185.73L150 0H163Z" fill="#E28420"/>
<path d="M563 0L600 50H585.73L550 0H563Z" fill="#E28420"/>
<path d="M838 0L875 50H860.73L825 0H838Z" fill="#E28420"/>
<path d="M1163 0L1200 50H1185.73L1150 0H1163Z" fill="#E28420"/>
<path d="M363 0L400 50H385.73L350 0H363Z" fill="#E28420"/>
<path d="M763 0L800 50H785.73L750 0H763Z" fill="#E28420"/>
<path d="M1088 0L1125 50H1110.73L1075 0H1088Z" fill="#E28420"/>
<path d="M1038 0L1075 50H1060.73L1025 0H1038Z" fill="#E28420"/>
<path d="M1363 0L1400 50H1385.73L1350 0H1363Z" fill="#E28420"/>
<path d="M38 0L75 50H60.7303L25 0H38Z" fill="#E28420"/>
<path d="M438 0L475 50H460.73L425 0H438Z" fill="#E28420"/>
<path d="M238 0L275 50H260.73L225 0H238Z" fill="#E28420"/>
<path d="M638 0L675 50H660.73L625 0H638Z" fill="#E28420"/>
<path d="M913 0L950 50H935.73L900 0H913Z" fill="#E28420"/>
<path d="M1238 0L1275 50H1260.73L1225 0H1238Z" fill="#E28420"/>
<path d="M138 0L175 50H160.73L125 0H138Z" fill="#E28420"/>
<path d="M538 0L575 50H560.73L525 0H538Z" fill="#E28420"/>
<path d="M813 0L850 50H835.73L800 0H813Z" fill="#E28420"/>
<path d="M1138 0L1175 50H1160.73L1125 0H1138Z" fill="#E28420"/>
<path d="M338 0L375 50H360.73L325 0H338Z" fill="#E28420"/>
<path d="M738 0L775 50H760.73L725 0H738Z" fill="#E28420"/>
<path d="M1013 0L1050 50H1035.73L1000 0H1013Z" fill="#E28420"/>
<path d="M1338 0L1375 50H1360.73L1325 0H1338Z" fill="#E28420"/>
<path d="M88 0L125 50H110.73L75 0H88Z" fill="#E28420"/>
<path d="M488 0L525 50H510.73L475 0H488Z" fill="#E28420"/>
<path d="M288 0L325 50H310.73L275 0H288Z" fill="#E28420"/>
<path d="M688 0L725 50H710.73L675 0H688Z" fill="#E28420"/>
<path d="M963 0L1000 50H985.73L950 0H963Z" fill="#E28420"/>
<path d="M1288 0L1325 50H1310.73L1275 0H1288Z" fill="#E28420"/>
<path d="M188 0L225 50H210.73L175 0H188Z" fill="#E28420"/>
<path d="M588 0L625 50H610.73L575 0H588Z" fill="#E28420"/>
<path d="M863 0L900 50H885.73L850 0H863Z" fill="#E28420"/>
<path d="M1188 0L1225 50H1210.73L1175 0H1188Z" fill="#E28420"/>
<path d="M388 0L425 50H410.73L375 0H388Z" fill="#E28420"/>
<path d="M788 0L825 50H810.73L775 0H788Z" fill="#E28420"/>
<path d="M1113 0L1150 50H1135.73L1100 0H1113Z" fill="#E28420"/>
<path d="M1063 0L1100 50H1085.73L1050 0H1063Z" fill="#E28420"/>
<path d="M1388 0L1425 50H1410.73L1375 0H1388Z" fill="#E28420"/>
<path d="M1413 0L1450 50H1435.73L1400 0H1413Z" fill="#E28420"/>
<path d="M1813 0L1850 50H1835.73L1800 0H1813Z" fill="#E28420"/>
<path d="M1613 0L1650 50H1635.73L1600 0H1613Z" fill="#E28420"/>
<path d="M2013 0L2050 50H2035.73L2000 0H2013Z" fill="#E28420"/>
<path d="M2288 0L2325 50H2310.73L2275 0H2288Z" fill="#E28420"/>
<path d="M2613 0L2650 50H2635.73L2600 0H2613Z" fill="#E28420"/>
<path d="M1513 0L1550 50H1535.73L1500 0H1513Z" fill="#E28420"/>
<path d="M1913 0L1950 50H1935.73L1900 0H1913Z" fill="#E28420"/>
<path d="M1713 0L1750 50H1735.73L1700 0H1713Z" fill="#E28420"/>
<path d="M2113 0L2150 50H2135.73L2100 0H2113Z" fill="#E28420"/>
<path d="M2388 0L2425 50H2410.73L2375 0H2388Z" fill="#E28420"/>
<path d="M2713 0L2750 50H2735.73L2700 0H2713Z" fill="#E28420"/>
<path d="M1463 0L1500 50H1485.73L1450 0H1463Z" fill="#E28420"/>
<path d="M1863 0L1900 50H1885.73L1850 0H1863Z" fill="#E28420"/>
<path d="M1663 0L1700 50H1685.73L1650 0H1663Z" fill="#E28420"/>
<path d="M2063 0L2100 50H2085.73L2050 0H2063Z" fill="#E28420"/>
<path d="M2338 0L2375 50H2360.73L2325 0H2338Z" fill="#E28420"/>
<path d="M2663 0L2700 50H2685.73L2650 0H2663Z" fill="#E28420"/>
<path d="M1563 0L1600 50H1585.73L1550 0H1563Z" fill="#E28420"/>
<path d="M1963 0L2000 50H1985.73L1950 0H1963Z" fill="#E28420"/>
<path d="M2238 0L2275 50H2260.73L2225 0H2238Z" fill="#E28420"/>
<path d="M2563 0L2600 50H2585.73L2550 0H2563Z" fill="#E28420"/>
<path d="M1763 0L1800 50H1785.73L1750 0H1763Z" fill="#E28420"/>
<path d="M2163 0L2200 50H2185.73L2150 0H2163Z" fill="#E28420"/>
<path d="M2488 0L2525 50H2510.73L2475 0H2488Z" fill="#E28420"/>
<path d="M2438 0L2475 50H2460.73L2425 0H2438Z" fill="#E28420"/>
<path d="M2763 0L2800 50H2785.73L2750 0H2763Z" fill="#E28420"/>
<path d="M1438 0L1475 50H1460.73L1425 0H1438Z" fill="#E28420"/>
<path d="M1838 0L1875 50H1860.73L1825 0H1838Z" fill="#E28420"/>
<path d="M1638 0L1675 50H1660.73L1625 0H1638Z" fill="#E28420"/>
<path d="M2038 0L2075 50H2060.73L2025 0H2038Z" fill="#E28420"/>
<path d="M2313 0L2350 50H2335.73L2300 0H2313Z" fill="#E28420"/>
<path d="M2638 0L2675 50H2660.73L2625 0H2638Z" fill="#E28420"/>
<path d="M1538 0L1575 50H1560.73L1525 0H1538Z" fill="#E28420"/>
<path d="M1938 0L1975 50H1960.73L1925 0H1938Z" fill="#E28420"/>
<path d="M2213 0L2250 50H2235.73L2200 0H2213Z" fill="#E28420"/>
<path d="M2538 0L2575 50H2560.73L2525 0H2538Z" fill="#E28420"/>
<path d="M1738 0L1775 50H1760.73L1725 0H1738Z" fill="#E28420"/>
<path d="M2138 0L2175 50H2160.73L2125 0H2138Z" fill="#E28420"/>
<path d="M2413 0L2450 50H2435.73L2400 0H2413Z" fill="#E28420"/>
<path d="M2738 0L2775 50H2760.73L2725 0H2738Z" fill="#E28420"/>
<path d="M1488 0L1525 50H1510.73L1475 0H1488Z" fill="#E28420"/>
<path d="M1888 0L1925 50H1910.73L1875 0H1888Z" fill="#E28420"/>
<path d="M1688 0L1725 50H1710.73L1675 0H1688Z" fill="#E28420"/>
<path d="M2088 0L2125 50H2110.73L2075 0H2088Z" fill="#E28420"/>
<path d="M2363 0L2400 50H2385.73L2350 0H2363Z" fill="#E28420"/>
<path d="M2688 0L2725 50H2710.73L2675 0H2688Z" fill="#E28420"/>
<path d="M1588 0L1625 50H1610.73L1575 0H1588Z" fill="#E28420"/>
<path d="M1988 0L2025 50H2010.73L1975 0H1988Z" fill="#E28420"/>
<path d="M2263 0L2300 50H2285.73L2250 0H2263Z" fill="#E28420"/>
<path d="M2588 0L2625 50H2610.73L2575 0H2588Z" fill="#E28420"/>
<path d="M1788 0L1825 50H1810.73L1775 0H1788Z" fill="#E28420"/>
<path d="M2188 0L2225 50H2210.73L2175 0H2188Z" fill="#E28420"/>
<path d="M2513 0L2550 50H2535.73L2500 0H2513Z" fill="#E28420"/>
<path d="M2463 0L2500 50H2485.73L2450 0H2463Z" fill="#E28420"/>
<path d="M2788 0L2825 50H2810.73L2775 0H2788Z" fill="#E28420"/>
</svg>
