<svg xmlns="http://www.w3.org/2000/svg" fill="#140D03" height="48" viewBox="0 -960 960 960" width="48"><path d="M480.147-332.5q-62.147 0-104.897-42.897-42.75-42.896-42.75-104.75 0-61.853 42.897-105.103 42.896-43.25 104.75-43.25 61.853 0 105.103 43.103 43.25 43.104 43.25 105.25 0 62.147-43.103 104.897-43.104 42.75-105.25 42.75ZM200.5-469.5h-134v-22h134v22Zm694 0h-134v-22h134v22Zm-425-291v-134h22v134h-22Zm0 694v-134h22v134h-22ZM276-670.5 194-750l15-17 81.5 81-14.5 15.5ZM751-193l-80.5-81 14.5-16.5 81 80.5-15 17Zm-80.5-492 79.5-81 17 15-81 80.5-15.5-14.5ZM193-209l81-81.5 14.5 14.5-79 82.5L193-209Z"/></svg>